<svg xmlns="http://www.w3.org/2000/svg" viewBox="0 0 657.05 784.3"><defs><style>.cls-1{fill:#2c2122;}.cls-2{fill:#fffffe;}.cls-3{fill:#f02e25;}</style></defs><title>Logo transparent</title><g id="Layer_2" data-name="Layer 2"><g id="Layer_1-2" data-name="Layer 1"><path class="cls-1" d="M408.45,679c2.7-1.7,5.9-2.1,8.8-3-.4,1.3-.8,2.5-1.2,3.8l-3.4-.3a14.62,14.62,0,0,1,.5,2c2.4.3,5-.3,7.2.8a8.87,8.87,0,0,1,.2,1.5c-4.3.1-8.7-.2-12.6,1.9a25.72,25.72,0,0,1,3.5-3.9A26.21,26.21,0,0,0,408.45,679Z"/><path class="cls-1" d="M239.55,694.5c3.4-1.9,6.8-4,10.3-6.1.2,10.9-.1,21.8.1,32.7-9.4.3-18.8.1-28.3.1-2,.2-3.9-.9-5.8-1.4-2,.4-3.8,1.6-5.9,1.4-10.3-.1-20.5.1-30.8-.1.2-8.2-.1-16.4.2-24.6-1.1-.7-2.2-1.3-3.3-1.9,3.4-1.9,6.6-4,9.9-6q.15,14.1,0,28.2c7.9,0,15.9.2,23.8-.1a103.41,103.41,0,0,0,13.8-7.7c-3.5-.9-7.2-3.4-10.9-1.9-2.1.6-4.2,1.2-6.3,1.9a51.14,51.14,0,0,0,6,3.4c-1.7.9-3.3,1.9-5,2.8a25.77,25.77,0,0,0-6.9-3.3c-1.9.3-3.8.9-5.6,1.2a6.13,6.13,0,0,1,2.6-2.9c2.5-1.1,3.6-4.1,6.5-4.6,4.1-1,8.4-1.8,11.6-4.8,3.4,3.7,8.9,3.6,13.2,5.8,2,1.4,3.7,3.4,6.1,4.3a14.92,14.92,0,0,0,.2,2.1c-2.2-.4-4.5-1.3-6.7-.4a32.61,32.61,0,0,0-7.9,4c7.3.3,14.7,0,22,.2,0-6.8-.1-13.6,0-20.4C241.45,695.8,240.55,695.1,239.55,694.5Z"/><path class="cls-1" d="M261,688.6c3.5,2,6.9,4.2,10.6,6-1.1.5-2.2,1-3.2,1.5,0,8.3-.2,16.7.1,25.1-2.5,0-5,0-7.6-.1C261,710.3,260.65,699.5,261,688.6Z"/><path class="cls-1" d="M411.35,688.6c3.4,1.9,6.8,4,10.3,5.9-1.2.8-2.4,1.5-3.4,2.3.2,8.2,0,16.2.1,24.4-2.4.1-4.7.1-7,.1C411.35,710.4,411.15,699.5,411.35,688.6Z"/><path class="cls-1" d="M516.25,695c3.4-2.1,6.9-4.3,10.3-6.3v28.2c10.3,0,20.8.1,31.1-.1-1.1-4.1-5.6-6-9.6-5.9-5.2-.5-10.7.8-15.6-1.5v-5.6c6.6,2.9,13.9,2.2,20.9,3.4,4.9,1,8.2,5.2,9.6,9.8h18c-.5-4.7,3.5-8.2,7.7-9.2,4.8-.9,9.8-1.3,14.4-2.9,0,5.5-.1,10.9,0,16.4-13.1.1-26.2.1-39.4,0-.2.4-.3.9-.5,1.3,1.5,1.6,3,3.1,4.6,4.5-2.3-.5-4.8-.7-6.6-2.2-1.3-1-2.2-2.4-3.4-3.4-1.2-.6-2.6-.3-3.9-.4-16,.1-32,0-48,0-8.2.3-16.41-.5-24.6.5-.8,2.7-1.7,5.6-4.3,7.2-5.8,3.9-13.2,3.4-19.7,2.2-3.6-.9-7.7-2.8-9.1-6.6-1.6-6,4.5-9.4,6.9-14.2-1-.4-2-.9-3-1.3l-3.9,2.4a9.59,9.59,0,0,1-.7-4.1,13.4,13.4,0,0,1,4.5-1.6c.4-.9.8-1.9,1.3-2.8,1.6-1.6,4-1.2,6-1.1-.71.9-1.3,1.9-2,2.9.6,2,1.5,4.3.79,6.4-1.7,3.4-4.89,5.6-6.5,9-1.1,2.9,1.9,5.1,4.11,6.1a21.72,21.72,0,0,0,13.79.6,9,9,0,0,0,4.21-3.5c2.09-2.7,1.2-6.3,1-9.4-1.21-.4-2.3-.9-3.41-1.3,3.41-2,6.91-4,10.3-6.1.1,3.5.1,7.1,0,10.7,2.5,0,5,0,7.5-.2-.2-1.3-.2-2.4-.4-3.7-.7-1.1-2.4-1.7-2.2-3.1q4.5-2.85,9.3-5.4v12.4h7.8c-.1-2.4-.1-4.7,0-7.1-1.1-.3-2.1-.7-3.2-1,3.2-2.3,6.6-4.4,10-6.4V717c2.8,0,5.6,0,8.4.1,0-6.7-.1-13.5.1-20.3a8.38,8.38,0,0,0-2.59-1.8m71.4,21.7c2.9.2,6,.2,9,.2v-6.2C592.85,710.7,587.55,711.9,587.65,716.7Z"/><path class="cls-1" d="M353.25,694.7c3.8-1.8,7.2-4,10.9-6.1.1,9.4,0,18.8.1,28.2,4.5,0,9-.1,13.5,0a9.83,9.83,0,0,1,6.5-8.7c5.1-1.6,10.7-1.5,15.7-3.4-.1,5.5,0,10.9,0,16.3-14.4,0-28.7.1-43.1,0,.3-8.4.1-16.7.1-25.2-1.3-.3-2.5-.7-3.7-1.1m32.4,19.1c-.1,1.2-.1,2.3-.2,3.4,2.9,0,5.8.1,8.7.1v-6.2A15.3,15.3,0,0,0,385.65,713.8Z"/><path class="cls-1" d="M57.85,693.3a22,22,0,0,1,4.7-2.7c1.7.7,3.3,1.7,4.9,2.5-.1.4-.2,1.2-.3,1.6a20.81,20.81,0,0,1-4.5,2.2C61,696,58.25,695.3,57.85,693.3Z"/><path class="cls-1" d="M68.35,693.3c1.6-.9,3-1.9,4.7-2.7,2.2.5,3.9,2,5.8,3.1a37,37,0,0,1-4.7,2.9c-1.5.5-2.8-.8-3.9-1.6C69.65,694.5,69,693.9,68.35,693.3Z"/><path class="cls-1" d="M310.85,693.3c1.8-.8,3.3-2,5-2.7a42.85,42.85,0,0,1,5.5,3.1c-1.8,1.1-3.4,2.7-5.5,3.2-1.5-.5-2.9-1.4-4.4-2-2.9-1-5.3,3.4-8.1,1.3-1.1-.8-3.1-1.1-3.3-2.7a36.44,36.44,0,0,1,4.7-2.8C307.05,691.2,308.75,692.6,310.85,693.3Z"/><path class="cls-1" d="M329.35,695.8c1.9-1.3,3.6-2.8,5.8-3.4,2,.8,3.6,2.3,5.4,3.5-1.8,1.1-3.6,2.2-5.3,3.4C333.15,698.1,331.25,697,329.35,695.8Z"/><path class="cls-1" d="M73.15,701.9c3.3-1.4,6.6-2.9,10-4V717c1.9-.1,3.9.3,5.8-.3,1.9-1.3,3.4-3.4,5.9-4a19.66,19.66,0,0,1,12,.2c2.3.8,3.7,2.8,5.7,4,4.5.3,9,0,13.5,0,0-.4.1-1.3.1-1.8-1.1-.8-2.2-1.4-3.2-2.2,3.4-1.9,6.6-4,9.9-6.1.1.8.2,2.6.2,3.5,2.4-1.4,5-2.9,8-2.9,9.9-.1,19.9,0,29.9,0,0,5.7,0,11.5-.1,17.2a36.66,36.66,0,0,1-10.5,4.2c-2.7-.9-5.5-1.9-8.1-2.9-2-.8-2.2-3.6-4-4.6-11.7-.1-23.5-.1-35.2,0-2.2,1.1-3.6,3.4-6,4.3-4,1.6-8.6,1.2-12.6,0-2.6-.8-4.2-3.4-6.7-4.2-10-.1-20,0-30,0,.1-3.1-.3-6.2.3-9.3,1.7-2.4,4.5-3.9,7.2-4.9,3.4-.9,7.1-.3,10.5-.3a7.42,7.42,0,0,0-2.6-5m-8.3,11.3c0,1.2-.1,2.4-.1,3.5,3.3-.1,6.5.1,9.8,0,1.9-1.2.8-3.8,1-5.6-3.8-.7-7.7-.7-10.7,2.1m67.8,3.4c8.2.3,16.3,0,24.5.2a37.18,37.18,0,0,0,.3,6.7,17.75,17.75,0,0,0,6.5,0c0-3.7,0-7.3.1-10.9-7.2-.2-14.3,0-21.5-.1a10.86,10.86,0,0,0-9.9,4.1m-36.6.4c-.1,1.1-.1,2.2-.2,3.4,2.4,1.5,5.5,2.2,8.1.9,1.8-.4,1.6-2.8.9-4.1C102.25,715.3,98.85,715.7,96.05,717Z"/><path class="cls-1" d="M315.75,701.9c3.3-1.4,6.6-2.9,9.8-4.1.1,6.4,0,12.7,0,19.1,4.8.1,9.6,0,14.5.1.2-1.9.5-3.8.7-5.6l-3.2-2.3c3.4-1.7,6.6-3.9,9.8-5.9.1,6.1,0,12.1.1,18.2-15.7,0-31.5.1-47.3-.1.1-2.9-.3-5.8.3-8.6,1.7-2.9,4.8-4.6,7.9-5.6,3.3-.8,6.6-.3,10-.3a6.64,6.64,0,0,0-2.6-4.9m-4.5,9.2c-1.9.5-3.1,2.2-4.5,3.5.3.6,1,1.6,1.4,2.2,3.3-.2,6.6-.1,9.8-.1v-5.6C315.75,710.9,313.45,710.4,311.25,711.1Z"/><path class="cls-1" d="M540.35,730.2c1.8-1.2,3.4-2.4,5.1-3.6,1.9,1.1,3.9,2.3,5.9,3.4-1.9,1.1-3.9,2.4-5.8,3.4C543.65,732.3,542,731.3,540.35,730.2Z"/><path class="cls-1" d="M176.75,751.3a47,47,0,0,1,7.5,0v26.1a62.56,62.56,0,0,1-7.5,0Z"/><path class="cls-1" d="M435.65,751.2c2.4-.1,4.6-.1,7,0,0,8.7.1,17.5,0,26.2h-6.9c-.9-3.8.1-7.6-.1-11.4C435.55,761,435.45,756.1,435.65,751.2Z"/><path class="cls-1" d="M630,751.3c2.3-.1,4.5-.2,6.7-.1-.2,8.7-.2,17.5,0,26.3-2.3.1-4.5,0-6.7-.1Z"/><path class="cls-1" d="M112.55,752.3a15.43,15.43,0,0,1,7.7-.2c.2.5.6,1.6.8,2.1a18.94,18.94,0,0,0-.9,2.1,27.69,27.69,0,0,1-7.6-.1Z"/><path class="cls-1" d="M319.65,752.3a15,15,0,0,1,8.4-.1c0,1.3,0,2.6-.1,4a44.93,44.93,0,0,1-8.2.1A26.73,26.73,0,0,0,319.65,752.3Z"/><path class="cls-1" d="M359.15,752.3a15.59,15.59,0,0,1,8.3,0v3.9a28.25,28.25,0,0,1-8.2.1C359.25,754.9,359.15,753.6,359.15,752.3Z"/><path class="cls-1" d="M205.25,753.2c4.1-.1,8.7-1.2,12.5.8,3.5,5.1,6.2,10.9,9.3,16.3,3.3-4.7,5.9-9.8,8.7-14.7.7-1,1.5-2.4,2.9-2.4a50.66,50.66,0,0,1,10.3.1c.2,8.1.1,16.2,0,24.2-2.4.1-4.9.1-7.3,0-.2-6.7.3-13.5-.2-20.2-3.5,6.7-7.3,13.5-10.9,20.1-2.7-.2-6.7,1.4-8.2-1.8-3-5.4-5.6-11-8.7-16.4-.4-.8-.9-1.6-1.3-2.4-.2,6.9,0,13.8-.2,20.7-2.3.1-4.5.1-6.9,0C205.15,769.3,205.15,761.3,205.25,753.2Z"/><path class="cls-1" d="M614.35,753.6c.3-.3.8-1.1,1.1-1.5,1.9-.3,3.6-.4,5.5-.7.8,1,1.5,2.1,2.3,3.1-2.1,1.9-5.2,1.4-7.8,1.9A13.59,13.59,0,0,1,614.35,753.6Z"/><path class="cls-1" d="M20.55,759.2a15.76,15.76,0,0,1,10.9-6.3,32.68,32.68,0,0,1,14.9,1.5V759c-4.5-1.6-9.4-3-14.2-1.6-2.4,1-4.6,3.2-4.6,6-.4,3.3.1,7.3,3.4,8.9,5.1,2.4,10.9.6,16.1-.8-.2,1.4-.3,2.9-.5,4.4-6.4,2.4-13.6,2.9-20.1.4-3.5-1.5-6.8-4.5-7.2-8.6C19,765,18.85,761.8,20.55,759.2Z"/><path class="cls-1" d="M462.85,765.1c-.8-6.1,4.5-10.7,9.9-11.8,5.7-1.2,11.9-1.2,17.3,1.3-.3,1.3.7,3.9-1.3,4.1-4.2-1.9-9.1-2.8-13.5-1.2-6.1,2.5-6.4,12.7-.1,15.1,4.9,1.7,10.1.3,14.9-1.1v4a27.22,27.22,0,0,1-20.6.5A9.84,9.84,0,0,1,462.85,765.1Z"/><path class="cls-1" d="M128.65,754.9a53,53,0,0,1,6.9-.1V759c2.5.2,5,.5,7.4.8-.1,1.1-.3,2.2-.3,3.3-2.2.1-4.4.1-6.6.2,0,3.4-.1,6.8.2,10.3,2.4.3,4.6.3,7,.5-.3,1.1-.4,2.4-1.3,3.2a15,15,0,0,1-9.8-.1c-1.7-.8-3.4-2.4-3.4-4.5-.1-3.2,0-6.3,0-9.4l-4.3-.3c0-1.1-.1-2.1-.1-3.2,1.4-.3,2.9-.6,4.3-.8C128.75,757.5,128.65,756.1,128.65,754.9Z"/><path class="cls-1" d="M52,760.6c5.7-1.8,12.1-2.6,17.9-.7a5.49,5.49,0,0,1,4,5.4c.1,4,0,8.2,0,12.3a17.66,17.66,0,0,1-7.2-.9c-4.8,1.5-10.3,2.4-14.7-.7-2.7-1.6-2.1-6.1.6-7.3,4.4-2.4,9.6-1.8,14.4-2.1-.6-1.2-.2-3.3-1.9-3.4-4.3-1.9-8.6,1-13,1-.9-1.2-.4-2.4-.1-3.6m5,12.9c2.7.8,5.6,1.6,8.2-.1,1.7-.4,1.3-2.4,1.8-3.7C63.55,769.8,57.25,768.5,57,773.5Z"/><path class="cls-1" d="M80.75,759.7c2.6-.7,5.8-1.3,7.2,1.7,4-2.3,8.8-3.3,13.2-1.9a8.32,8.32,0,0,1,5.8,9.1c.5,4.6-3.7,8.6-8.2,9.2-3.6,1-7.2-.6-10.5-1.6,0,2.3.1,4.5,0,6.7.3,1.7-1.9,1.3-2.9,1.4a34,34,0,0,1-4.5-.3c.1-8.1,0-16.3-.1-24.3m7.6,5.7v6.2c2.4,1.2,5,3,7.7,2,4.2-1.6,4.6-8.4.5-10.4C93.65,762.3,90.85,763.7,88.35,765.4Z"/><path class="cls-1" d="M112.75,759.7a15,15,0,0,1,7.6-.2c0,6-.1,11.9,0,17.9-2.4-.2-5.4.8-7.5-.6C112.65,771,113,765.4,112.75,759.7Z"/><path class="cls-1" d="M147.15,760.7a33.07,33.07,0,0,1,15.6-1.7c2.4.5,5,1.3,6.3,3.5.4,5,.1,9.9.2,14.9-3.3.8-6.4-1.9-9.6-.3-5,1.6-11.9.9-14.4-4.4.8-1.6,1.4-3.4,3.1-4.3,4.3-2.3,9.3-1.9,14-2-.1-1.1-.2-2.2-.3-3.2-4.9-2.1-9.8.1-14.6.8-.1-.9-.2-2.2-.3-3.3m5.9,10.3c0,.7.1,1.9.1,2.5a8.93,8.93,0,0,0,8.8-.7c.3-1,.4-2.1.7-3.1C159.35,769.7,156,769.3,153.05,771Z"/><path class="cls-1" d="M256.45,759.5c2.4-.3,5.6-1.7,7.4.7.3,3.8-.2,7.6.3,11.4.4,1.8,2.4,2,3.9,2.3,2.3-.2,4.1-1.5,6.1-2.5V759.5a16.49,16.49,0,0,1,7,.2v17.8c-1.7.1-3.4.1-5,.2-.6-.8-1.2-1.4-1.9-2.2-3.2,1.8-6.8,3.2-10.5,2.4-2.8-.3-5.7-1.6-6.9-4.3C256.25,768.9,256.65,764.1,256.45,759.5Z"/><path class="cls-1" d="M288.55,759.1c2.5-.2,5.2-.2,7,1.9,3.9-1.9,8.3-3,12.5-1.6,2.5.8,5,2.9,4.9,5.7q.15,6.15,0,12.3c-2.4.1-4.7,0-7,0-.4-4.4,1-9.2-1-13.2-2.7-2.6-6.5-.7-9.2.9,0,4,.1,8.1,0,12.2a59.28,59.28,0,0,1-7.3.1C288.45,771.3,288.35,765.1,288.55,759.1Z"/><path class="cls-1" d="M320.35,759.5a26.48,26.48,0,0,1,6.9-.6c.3,6.1.2,12.3.1,18.4-2.3.1-4.6,0-6.9,0C320.35,771.5,320.45,765.5,320.35,759.5Z"/><path class="cls-1" d="M337.05,761.2c5.2-3,11.8-2.9,17.2-.7,0,1.3,0,2.6-.1,3.9-3.6-1-7.3-1.9-11.1-1.3-1.1,1.7-2.7,3.3-2.4,5.5a5,5,0,0,0,3.9,5c3.3,1,6.5-.8,9.7-1.7v4.3c-5.7,2.1-12.4,2.6-17.7-.7C332,772.1,332.15,764.3,337.05,761.2Z"/><path class="cls-1" d="M360.05,758.9a40.06,40.06,0,0,1,6.9.5v18c-2.4.1-4.7.1-7,.1C359.85,771.3,359.65,765.1,360.05,758.9Z"/><path class="cls-1" d="M374.25,759.5c2.6-.9,5.3-.8,7.2,1.5,4.7-2.5,10.9-3.4,15.6-.3,5.6,4,4.3,14-2.4,16.2-4.2,1.9-8.8.8-12.9-.8v8a62.57,62.57,0,0,1-7.5.1c0-8.3.1-16.5,0-24.7m7.6,5.5c.2,2.2-.6,4.7.3,6.7,1.9,1.3,4.4,2.5,6.7,1.9,4.3-1.1,5.2-7.8,1.4-10.1C387.65,762,384.35,763.5,381.85,765Z"/><path class="cls-1" d="M406.35,760.6a29.85,29.85,0,0,1,16.2-1.3c2.8.4,5.8,2.7,5.6,5.8.1,4.1,0,8.2,0,12.4a14.81,14.81,0,0,1-7.2-.9c-4.7,1.5-10.5,2.5-14.8-.8-2.6-1.6-2.2-5.9.6-7.2,4.4-2.4,9.5-1.9,14.3-2.2a26.27,26.27,0,0,0-.8-3c-4.5-2.5-9.5.3-14.2.8.2-1.2.2-2.4.3-3.6m4.8,10.9c.3.6.9,1.9,1.2,2.4,2.4.3,4.9.6,7.1-.5,1.4-.7,1.6-2.4,2.4-3.6C418.15,769.6,414.25,769.2,411.15,771.5Z"/><path class="cls-1" d="M502.05,759.2c4.8-.8,10.1-.9,14.6,1.3,5.9,2.7,5.7,12.5-.1,15.2a23.58,23.58,0,0,1-17.7.9,8.85,8.85,0,0,1-5.6-10.5,11.57,11.57,0,0,1,8.8-6.9m1.8,3.9c-4.1,1.7-4.4,8.3-.3,10.3a10.53,10.53,0,0,0,7.8-.4c2.4-1.6,2.1-5,1.7-7.4C511.45,762,507.05,762.6,503.85,763.1Z"/><path class="cls-1" d="M526.55,759.7c2.4-.3,5.6-1.6,7.4.6.3,3.8-.2,7.6.3,11.4,1.9,4,8.4,2.2,9.8-1.3.1-3.8-.2-7.5.2-11.3,2.3.1,4.5,0,6.9,0,.1,6.1,0,12.3.1,18.4-2.6.1-5.6.7-7.2-1.9-4.1,2.4-9.3,3.4-13.6,1.3a6.27,6.27,0,0,1-3.7-4.9C526.45,767.9,526.65,763.7,526.55,759.7Z"/><path class="cls-1" d="M558.45,759.5c1.7-.3,3.4-.5,5-.7.6.8,1.3,1.7,1.9,2.5a16.55,16.55,0,0,1,13-2c2.5.8,5,2.9,4.8,5.8.1,4.1,0,8.2,0,12.3-2.4.1-4.6.1-6.9,0-.2-4,.2-7.8-.2-11.8-1.7-4.2-7-2.6-9.9-.7q-.15,6.15,0,12.3a64,64,0,0,1-7.6.1C558.55,771.5,558.55,765.5,558.45,759.5Z"/><path class="cls-1" d="M595,759.9a19.31,19.31,0,0,1,13.8.2c1.6.6,1,2.7,1.4,4-3.5-.3-6.9-1.9-10.5-1.1-4.5,1.3-4.5,9-.1,10.4,3.5,1.3,7-.7,10.3-1.5,0,1.4,0,2.8-.1,4.2-4.9,1.7-10.3,2.5-15.3.7a8.2,8.2,0,0,1-5.7-8.3A9.33,9.33,0,0,1,595,759.9Z"/><path class="cls-1" d="M615.15,759.7a13.11,13.11,0,0,1,7.6,0c-.1,5.8.1,11.6-.1,17.4-2.2,1.2-5,.3-7.4.4C615.15,771.5,615.15,765.5,615.15,759.7Z"/><path class="cls-2" d="M92.55,39.7c11.6-8.4,25.5-14.5,40.1-14.7-3.1,9.4-11.5,15.5-19.6,20.4-11.1,5.2-22.8,10.2-30.7,19.8a10.91,10.91,0,0,0-2.5,5.7c17.5-14.2,38.7-24.9,61.5-26.8,3.2,1.4,5.9,3.6,8.9,5.1,7,3.8,14.5,6.3,22,8.8-5.5,1.5-11.1,3.3-16.9,2.4-15.2-2-32-1.6-45.2,7.1,9.4-.6,18.8-2.3,28.2-2.3A116.38,116.38,0,0,1,167,70.5c5.6,1.6,10.4,4.6,15.9,6.4a72,72,0,0,0,13.7,3.3c-8.9,3.9-19.1,5-28.4,2.2-8.7-1.9-17.5-3-26-5.7-4-1.2-7.8-2.7-11.8-3.8,4.2,7,12.2,10.1,19.8,11.4,9.2,2.3,19,3.1,27.4,7.6-12.3,5.1-26.6,6.7-39.4,2.2-10-4-18.6-11-28.6-15A42.11,42.11,0,0,0,88.15,77c6.8,2,14,3.6,19.4,8.4,3.4,3.1,3.7,8,3.9,12.2-9.1-3.3-19.4-4.6-28.7-1.2-12.1,4.3-18.8,19.5-13.7,31.3,3.2,7.7,9.5,13.5,16.1,18.4-9-.1-18.5-1.7-25.6-7.6-11.2-9.3-18.5-23.9-17.5-38.5.6-8.9,2.1-17.8,5.8-26a6.45,6.45,0,0,1,2.4-3,223.81,223.81,0,0,0,26.5-17.9C82.25,49.4,87,43.9,92.55,39.7Z"/><path class="cls-2" d="M472.65,51.7c7-4.4,15-8,23.3-7.9a57.53,57.53,0,0,1,23.5,4.5c-3,.8-5.9,2.6-9.1,1.9-10.9-2.1-23.3-.3-31.8,7.3,4.1-.8,7.9-2.6,12.1-3.5a30.91,30.91,0,0,1,14.5.5c-13,8.9-29.6,5.8-43.7,11C464.15,60.2,467.45,54.9,472.65,51.7Z"/><path class="cls-2" d="M482.75,99.4c4.3-1,8.8,0,13.1.6a50.29,50.29,0,0,1-33.6,19.6c11.8,3.6,24.6,3.1,36.4-.3,5.9-1.6,11.5-4.3,17.59-5.4,10.3-1.9,21.41-.2,30.3,5.5-6.8,6.8-16.7,8.4-25.9,9.5,7.7,5.9,17.6,8.3,27.2,7.5,6-.4,11.6-3.7,15.8-7.8,6.4-6.9,8.7-17.1,6.5-26.2,7.2,2.2,14.7,6.1,17.8,13.3,3.4,7.3,3.6,16.8-1.4,23.4-5,6.3-13.1,9.4-21,9.9-9.1.8-17.8-4.1-26.9-1.9,3.8,1.5,7.9,2.3,11.5,4.3,5.8,3.2,11.9,5.9,16.6,10.8,6.5,5.9,9.9,14.2,14.6,21.5-11.3,1.3-23.4-.4-32.5-7.7-11.4-9.4-18.3-23.3-30.8-31.5-12.5-7.3-27-12.3-41.6-10.1,12,2.5,26,6.8,31.2,19.1-10.7,1.8-21.6-1.5-30.9-6.5-4.4-4.2-9.1-8.7-15.2-10.2a37,37,0,0,0-19.8-.5c9,1.7,18.3,3.9,25.4,9.8a37.8,37.8,0,0,1,8,9.8,51.17,51.17,0,0,1-23.5-3.9c-6.4-2.7-11.6-7.7-18.2-10.3-15-6.3-31.7-8.2-47.8-6.8a30.78,30.78,0,0,1,8,21c-10.8-8.2-24.2-13.4-37.9-12.8-14.5.8-29.4,6.3-38.5,18a42.83,42.83,0,0,0-3.9-14.4,201.36,201.36,0,0,0,46.3-20.4c-7-1.9-14.5-3.4-19.9-8.3,7.7-2.7,16.1-4.9,24.3-2.8,4.8,1.1,8.3,4.9,10.7,9,6.4-2.4,13.2-4.1,20.2-3.8,5.4-.1,10.4,1.5,15.7,2a79.39,79.39,0,0,0,51.4-13C468.25,105.1,475,100.7,482.75,99.4Z"/><path class="cls-2" d="M187.45,107.7c12.6-4,26.5-4.6,38.9-.1a63.89,63.89,0,0,1,16.9,9,97.54,97.54,0,0,0-12,1.2c-5.9.8-11.9,3-17.9,2C203.55,118.3,196.05,111.6,187.45,107.7Z"/><path class="cls-2" d="M164.35,109.2a44.43,44.43,0,0,1,26.1,6.7C181.25,116.5,172.45,113.2,164.35,109.2Z"/><path class="cls-2" d="M287.05,122.3a27,27,0,0,1,18.8-9.8c4.6,6.9,10.9,13.8,10.2,22.7-.1,3.6-3.3,5.7-6,7.4A59.3,59.3,0,0,0,287.05,122.3Z"/><path class="cls-2" d="M242.45,136.2c15.4-6.5,36.3-3,45.6,11.8-12.5.8-25.3-.9-36.5-6.7C248.45,139.5,245.45,137.9,242.45,136.2Z"/><path class="cls-2" d="M226,146.9a34.55,34.55,0,0,1,11.6-9.2c14.8,12.2,34.6,16.6,53.4,14.5,2.3,5.5,4.9,11,5.5,16.9-8.5.1-17.4-1.4-24.7-6-2.4-1.4-4.6-3.8-7.7-3.3C250.45,160.1,235.85,156.9,226,146.9Z"/><path class="cls-2" d="M395.85,139.9c10.4.1,20.7,2.5,30.5,5.9-8.3,4.4-16.9,8.9-26.3,10.2A35.37,35.37,0,0,0,395.85,139.9Z"/><path class="cls-2" d="M350.75,151.5c.3-2.5,3-2.5,5-2.6a60.94,60.94,0,0,1,20.7,3.6c-10,10.9-25.2,15.2-39.7,14.9C343.15,163.8,348.55,158.4,350.75,151.5Z"/><path class="cls-2" d="M317.15,169.4c7.5-9.2,17.5-17.2,29.3-19.4C341,161.1,329.35,168.4,317.15,169.4Z"/><path class="cls-2" d="M579.45,152c10.7-.7,21.8-2.8,32.3,1a26.55,26.55,0,0,1,13.9,13.3c3.6,6.9,9.6,12.1,14.7,17.9a41.57,41.57,0,0,1-37.8-13.7,69.77,69.77,0,0,0-23.1-18.5m10.3,3.1c5.7,3.8,11.2,8,15.4,13.5,4.2,5.8,11,9.2,17.8,11.1-4-3.5-9-6.1-11.9-10.7a30.1,30.1,0,0,0-21.3-13.9m20.2,1.8c2.8,3.1,5.9,6,7.6,9.9,1.9,4.4,5.7,8.3,10.9,8.7-4-3.2-6-7.8-8.3-12.1C618,159.5,613.85,157.8,610,156.9Z"/><path class="cls-2" d="M359.55,169c7.9-3.7,16.3-7.1,21.6-14.4a172.36,172.36,0,0,0,25.5,14.4C391.05,169.4,375.15,169.5,359.55,169Z"/><path class="cls-2" d="M27.25,174.8c2.8-8.3,10.3-13.9,18.2-17.3,12.7,7.1,27.4,8.4,41.7,8.3-12.5,4.3-22.7,13.1-32.6,21.5-7,6.4-16.5,9.4-25.8,9.7-2.6-6.9-4.2-14.8-1.5-22.2m6.8,2c-2.4,3.7-2.4,8.2-1.9,12.6,3.1-5.3,6-10.6,10.2-14.9,2.5-2.7,5.8-4.6,8.5-7.2-6.4,1.2-13.4,3.4-16.8,9.5m16.2-2c-3.3,3.2-4.3,7.7-5.1,12,3.7-3.4,6.9-7.4,10.8-10.4,3.8-3.2,8.1-5.3,12.6-7.3C62.15,168.5,55.05,170,50.25,174.8Z"/><path class="cls-2" d="M146.55,174.4q182-.15,363.8,0c-.2,26,0,52-.1,78,.2,2.7-1.5,5.1-2.5,7.4-11,22.5-21.7,45.2-32.7,67.7-11.9-24.4-24.3-48.7-36.4-72.9-12.3,24.3-24.6,48.7-36.7,73-12.2-24.3-24.2-48.8-36.5-73-12.2,24.4-24.4,48.8-36.9,72.9-11.8-24.5-24.3-48.6-36.3-72.9-12.3,24.3-24.7,48.6-36.7,72.9-12.3-24.3-24.3-48.7-36.7-72.9-12.2,24.3-24.5,48.6-36.7,72.7-10.4-21.6-21.1-43.3-31.5-64.9-1.5-3.3-3.9-6.2-3.8-9.9C146.65,226.5,146.85,200.4,146.55,174.4Z"/><path class="cls-2" d="M95.25,209.2c18-6.5,32.5-19.8,45.8-33.1a104.09,104.09,0,0,1-.1,15.8c-1.7,3.7-4.5,6.5-7.1,9.6-9.6,11.3-21.7,19.8-33.6,28.5,10.8-3.8,21.3-8.8,30-16.3a141.42,141.42,0,0,0,10.9-11c.1,17.4.2,34.9-.2,52.4-11.5,20.4-14.9,44.8-10.9,67.7,1.3,7.2,3,15.1-.7,21.8-1.9,4-5.7,6.7-9.4,8.9-.3-9.2-3.6-17.8-5.2-26.8-3.2-11.8-2-24.2-.6-36.1,1.4-11.5,4.7-22.5,7.5-33.7-7.4,9.1-10.6,20.8-13,32.1a116.85,116.85,0,0,0-1.5,30.1c-14.6,15-23.5,35.5-23.6,56.5-6.5-7.2-10.3-17.4-8.3-27,2.5-1.5,5.7-1.8,8.3-3.3,5.8-3,9.5-8.8,11.6-14.7,3.8-12.1-1.2-25.8-10.7-33.9-1.2,5.4-2.1,11.1-5.4,15.6-4,5.3-11.9,5.9-17.5,3-2.7-1.4-4.1-4.2-5.7-6.7,4.2-1.1,8.8-1.4,12.6-3.8,7.8-4.8,11.7-14,11.7-22.9.1-4.2-1.1-8.2-2.1-12.2,11.1-3.7,19-13.7,22-24.8-6.8,3.9-14.6,7.9-22.6,6.3-6.3-1-10.7-6.8-12.2-12.6-1.9-8.3,3.6-16.2,9.7-21.2,5.6-5,13.6-5.3,20.3-8.2m-10.9,17.6c-4.4,1.8-9.5,2.6-12.8,6.4-2.2,2.2-3.2,5.3-3.9,8.2,2.3-2.1,4.2-4.5,6.9-6.2,4.7-2.8,10.7-3.6,15-7.3,1.9-1.6,2.9-4,3.9-6.1a44.73,44.73,0,0,1-9.1,5m27.1,19.8c-4.6,4.9-8.7,10.8-9.9,17.5,5.9-6.8,11.6-13.7,18.7-19.3a38.29,38.29,0,0,0,14-21.8c-6.6,8.8-15.7,15.2-22.8,23.6m14.3,19.5c-4.7,8-4.9,17.7-4.3,26.8,3.5-13.3,7.9-26.5,14.9-38.4A46.69,46.69,0,0,0,125.75,266.1Z"/><path class="cls-2" d="M586.85,219.6a31.76,31.76,0,0,1,6.2,3.5c-1.1,4,1.9,7.4,2.4,11.2,1.5,6,1.1,13.3-3.9,17.6-3.1,3.5-7.5,4.8-11.6,6.2,5.3,1.2,11.2,1.1,15.8-1.9,6.8-4.8,8.4-14.8,4.8-22-1.5-3.5-4.3-6.1-6.8-9a10.47,10.47,0,0,0,.8-1.1A39.53,39.53,0,0,1,611,242c4.1,9.6-2.9,22-13.1,23.3-9.3,1.4-18.7-3.6-24-11.2,5.7-1.6,11.7-4.1,14.6-9.6C592.65,236.7,590,227.5,586.85,219.6Z"/><path class="cls-2" d="M47.35,270.5c-1.5-3.8.4-7.7,2-11.1,2.9,3.1,5.7,6.2,9.5,8,3.7,2.2,8.1,2.6,12.2,3.6-2.3,2.4-4.5,5.1-7.6,6.8C57.35,280.4,49.25,277,47.35,270.5Z"/><path class="cls-2" d="M611.15,264.7c4.3,4.4,8.2,9.5,10.1,15.5a22.36,22.36,0,0,1-5.9,22.6c-4.2,3.8-10.7,3.4-15.5,1.1-4.3-2-9.1-4.9-10.3-9.8-1.3-4.4-2.4-9-5.1-12.9-2.1-3.5-5.3-6-8.1-8.8,3.6.6,7.2,1.5,10.1,3.7,4.2,2.8,7.8,7.7,13.3,7.8,4.4.2,9.7-1.7,11.5-6.1,2-4.3.4-8.7-.1-13.1m4.2,13.8c-.3,2.4-.1,5.1-1.1,7.4a13.12,13.12,0,0,1-11.6,7c-3.9.2-7.2-2.4-10.5-4.1,2.9,7.9,13.1,11.7,20.4,7.4C618,292,618.65,283.9,615.35,278.5Z"/><path class="cls-2" d="M97.55,343.1a84.5,84.5,0,0,1,11-16.9c1.6,9.5,5.4,18.7,5.1,28.4-2.5-.2-5.1-.3-7.3-1.5C102.25,351,100,346.9,97.55,343.1Z"/><path class="cls-2" d="M568.85,344.4c3.9,5.9,8.2,11.9,9.3,19.1,1.2,6.4-.6,13.7-5.9,17.8-4.9,3.7-11.5,4.3-17.4,3,6.59-2,13.7-5.7,16.3-12.6,2.2-5.3,1-11-.6-16.2-1.2,5.9-1.9,12.2-5.9,17-4.91,5.8-13.21,8.2-20.5,7a41.38,41.38,0,0,1-17.5-30c4.9,6.8,11.79,12.3,20.09,14a18.06,18.06,0,0,0,19-9C567.65,351.5,568.35,347.9,568.85,344.4Z"/><path class="cls-2" d="M451.45,465.6a450.85,450.85,0,0,0,50.9-119.8c2.3,5.9.5,12.3,1.2,18.5.6,11.3,2.8,23.1,9.6,32.4a105.88,105.88,0,0,1,17.4,40.5c-2.1,2.5-4.5,5.1-8,5.3-7.8.6-14.8-4.5-20.1-9.8-3.8-11.6-3.5-24.3-2.5-36.3a15.05,15.05,0,0,0,1,1.7c1.6,6.4,3.4,13,7.4,18.4,5.4,7.2,10.6,14.6,13.2,23.2.5-7.8-.7-16-5.6-22.4-5.3-6.9-10.9-13.7-13.8-22-.6-1.7-1.3-3.4-1.8-5.2-.6,1.3-1.3,2.5-1.8,3.8-4.7,11.7-4,24.8-2.5,37a140.24,140.24,0,0,0,7.9,29.9c3.3,8.2,6.9,16.7,6.4,25.6-.2,4.8-3.4,10.3-8.7,10.3-9.4-.1-18.7-4.6-25.1-11.4-5.4,0-9.2,4.8-11,9.4-4.1,11.2-4.2,23.3-7.2,34.8-3.2,11.2-12.5,19.6-23.1,23.5a43.3,43.3,0,0,0,8.8-25.6c-6.2,3.7-12.8,6.9-19.8,8.5.4-9.1.4-19.3,6.6-26.5,6.6-5.8,15.5-8.1,22.6-13.4,5.4-4.1,10.6-9,12.9-15.5,2.5-6.5,2.1-13.8.5-20.6-5.4,1.7-10.4,3.8-15.4,5.7m33.8-18.7c2.3,15.7,13.6,28.2,17,43.5a23.12,23.12,0,0,0,1.2-7.8c-.7-9.5-5.3-18-9.5-26.3-4.8-9.7-5-20.7-5-31.2-4.1,6.4-4.9,14.3-3.7,21.8m-32.1,60.2c-2.5,6.8-2.1,14-3.4,21.1-.6,3.6-1.8,7.2-2,10.9,5.6-7.6,7.3-17.3,8.7-26.5,1.2-7.4,4.7-14,7.5-21A31.36,31.36,0,0,0,453.15,507.1Z"/><path class="cls-2" d="M143.35,380.6c1.8-3.7,3-7.7,4.4-11.5-.8,7.6-3.5,14.8-5.8,22-5.3,15.7-14.5,30.1-17.7,46.4-1.2,6.3-1.7,13.4,1.8,19.1,3.7,6.2,12.5,8,18.8,5,3.6-1.9,6-5.4,8.4-8.5,5.8,9.2,2.5,22.7-7.1,27.8-8.4,4.3-19.7,2.6-26.3-4.3-7.1-7.4-9.2-17.9-9.3-27.9.4-14.4,7.2-27.4,14.9-39.2,5.9-9.6,13.3-18.3,17.9-28.9m-2,91.2c-7.8,2.6-15.9-.7-22-5.8,1.9,3.1,3.5,6.5,6.3,8.9,5.2,4.1,12.7,3.7,18.4,1,4.7-2.3,7-7.7,7.8-12.6C148.85,466.6,146,470.4,141.35,471.8Z"/><path class="cls-2" d="M132.65,488.5c3.3.1,6.6,0,9.9-.1,2,1.3,3.5,3.2,5.5,4.3,6.5,3.4,14.9,3.5,21.2-.3a68.54,68.54,0,0,0,6.1-4.5c.8,6.4,1.3,13.4-1.6,19.4-2.6,6.5-9.7,10.3-16.5,11.2-9.4,1.2-18.9-4.8-22.5-13.4-2.4-5.2-2.4-11.1-2.1-16.6m7.5,9.3c1.5,9.4,12.9,14.1,21.2,10.8,4.5-1.6,7.5-5.8,9.7-9.8-3.7,2.4-7.3,5.5-11.8,6C152.05,505.9,145.75,501.5,140.15,497.8Z"/><path class="cls-2" d="M181.85,491.5c5.9,7,11.5,14.4,15.1,22.9,2.4,5.6,2.5,11.9,5.2,17.5,4.2,10.4,13.5,18.3,24,22.3,9,3.8,18.8,4.9,28.4,5.8s18.9,4.6,27.1,9.7c-8.3,6.5-19.6,6-29.6,4.2-9.9-1.4-19.4-4.2-29.2-6.1,10.8,7,23.5,10.2,36.1,11.7,9.6,1.8,19.7,1.2,28.9,5.1,5.4,1.9,10.3,4.9,15.1,7.9-7.8,2.1-15.9,3.9-24.1,2.7a167.58,167.58,0,0,1-18.6-4.4,389.56,389.56,0,0,1-42.1-13.6c11.2,19.2,17.6,42.7,11.4,64.7-4.6-7.9-10.2-15.3-15.3-22.9-3.6-5.6-8.3-10.9-9.5-17.7-2.3-8.4-.8-17.3-1.1-26a35.54,35.54,0,0,0-5.5,22.1c-9.1,2.8-19.5,3-28-1.8-6.4-5.4-7.7-15.2-5-22.9,5.3,1.3,10.8,3.3,16.1,1.5a13.15,13.15,0,0,0,7.5-11.3,43.45,43.45,0,0,0-4.4-22.7c-3.8-7.6-6.3-15.7-9.3-23.7C180.75,509.4,182.55,500.2,181.85,491.5Z"/><path class="cls-2" d="M373,648.6a165.21,165.21,0,0,1,37.2-42.7c-.9,4.2-.8,8.9-2.7,12.9-5.1,8.1-11.5,15.2-17.7,22.4-3.7,4.5-8.3,8-12.5,12.1,12.8-5.5,23.5-14.9,31.7-26.2.8,3,1.9,5.8,2.9,8.8-4.2,5.6-8.5,11.2-14.2,15.3-11.1,8.3-25.2,11.9-38.9,10.9A39.16,39.16,0,0,0,373,648.6Z"/><path class="cls-1" d="M88.85,0c3.1,5.3,6.2,10.8,7,17,.7,4.6-.1,9.4-.7,14,13.1-8.3,28.9-13.4,44.4-10.7-.5,7.9-4.5,15-9.5,20.9,10.2-2,19.7-7.4,30.4-7.1,10.3-.5,21,2.2,29.4,8.4a69.1,69.1,0,0,1,15.8,17c-7.5,1.9-15.2,1.2-22.8.8-5.2,2-10.3,4-16,4.1a67.66,67.66,0,0,1,16.3,5.9c8.7,4.5,18.6,5,28.2,4.9-3.7,4-7.5,8-12.3,10.4a35.87,35.87,0,0,1-15.4,3.6c.5,2,1,4,1.4,6-12.6,4.8-26.1,8-39.5,6.2-6.9-1.1-13.6-3.1-19.4-6.9-3.4-2.2-6.9-4.2-10.4-6.1a24.31,24.31,0,0,1,.2,17.8c-3.1-1.9-6.2-4.3-10-3.7-9.1.5-17.7,9.3-16.1,18.6,1.1,5.8,6.5,9.3,11.8,10.8,12,3.6,24.7,2.8,37,2.4-8.7-2.7-15.7-8.8-24-12.3-3.9-1.8-8.1-2.8-12.1-4.3,9.7-7.1,22.2-9.2,33.9-7.9a90.72,90.72,0,0,1,32.4,10.9c13.3,7,29.1,9.5,43.6,4.9a125,125,0,0,1-12-4.8c-1.4-.6-2.7.1-4.1.2-11.1,2-22.6-.6-32.4-5.9-5.4-2.7-10.1-6.5-14.9-10.2a69.59,69.59,0,0,1,26.9-.4,8.94,8.94,0,0,0,5.6-.3c20.6-8,45.5-6.4,63.5,7,2.7,1.7,5,5.1,8.5,4.4a70.79,70.79,0,0,1,28.5,4.5,19,19,0,0,1,5.5-5.8c6.2-3.7,13.1-6.1,20.1-8.1,3,4.7,7.4,8.4,9.8,13.5,3.3,5.8,5.8,12.9,2.9,19.4,8.4-3.9,17.1-7.3,25.4-11.4-7-2.1-13.6-6.2-16.5-13.2,8-1.6,15.7-4.1,23.7-5.7,9-1.8,19.5.3,25.2,8,10-1.6,20.3-2.1,30.3-.3,2.3.1,4.9,1.1,7.1.1,5.3-7.4,12.2-13.9,21-16.9,9.1-3.4,19.1-2.6,28.3-.1,3-.3,5.4-2.7,8.2-3.7,10.2-4.8,22.1-3.2,32.2.8-4.1,8.1-11,14.4-18.5,19.4,11.3-.5,20.9-7.3,32-8.5,12.9-1.5,27.3,1.4,36.3,11.4-3.9,5.6-9.7,9.2-15.8,11.7,6,.1,12.6-.1,17.6-3.7,7.4-5.1,10-15.5,7.4-23.7-1.2-3.3-5.3-1.8-7.8-2.1-9.2-.3-17.8,4.6-27,2.8a25.33,25.33,0,0,1-17.7-12.8c-12.3-1.3-24.9-7.6-30.3-19.3,4.2.6,8.4,2.2,12.8,1.7s8-3.4,11.5-5.9c-1.2-1.4-2.4-2.6-3.7-3.9-1.8-.4-3.6.5-5.3,1.1-8.5,3.2-17.8,2.4-26.6,4.4a187.12,187.12,0,0,0-19.5,5.3c4.3-15.6,16.4-29.2,32-34.2,14.4-4.3,30.1-1.6,43.3,5.1,3.5,2.1,7.6,1.1,11.5,1.5,4.3.1,8.4,1.8,12.6,3-4.9-6.3-11.5-10.9-18-15.2,12-1.9,25.1-2.2,36.2,3.6,6.1,3.1,10.8,8.3,14.7,13.8-.5-5.4-3.6-9.9-5.4-14.8-2.4-7-2.4-15,.8-21.7,5.9,7.4,14.1,12.3,22.8,15.9,6,2.7,12.9,5,16.9,10.7,8.3,11.9,6.7,29-1.9,40.3,2.6,8.3.7,17.1-2.8,24.9,8.1-2,16.9-2.7,25,0,11,3.9,18.8,15.3,18.7,26.9-.4,9.9-7.2,18.4-15.2,23.5-.3-5.6-.8-11.8-5.5-15.7-3.7-4-9.6-4.2-14.5-2.8-4.2,1.4-7.2,4.8-10.6,7.5,5.2,1.9,10.2,4.4,14,8.5,4.4,4.2,6.2,10.5,10.3,15,4.9,6.4,11.3,11.3,17,16.9-9,3.4-18.8,5.2-28.2,2.8-10.8-2.1-20.5-8.5-27.5-16.9-7.6-8.4-17.1-15.6-28.5-17.6,3.7,3.6,7.6,7.1,10,11.7a128.47,128.47,0,0,0,13.8,21.2c-12.9,2.4-26.7,3.5-38.8-2.4-14.4-6.5-21.6-21.4-32.9-31.6a66.8,66.8,0,0,0-9.6-7.2c1.7,3.6,3.4,7.2,4.1,11.1-10.8,3.8-22.8,2.6-33.1-1.8.2,1.9.4,3.7.7,5.6-12.6,1-25.5-.8-36.8-6.5-2.4,1.7-4,4.3-6.2,6.3-3.1,3.3-7,5.5-10.9,7.6,29-.1,57.9,0,87-.1,5.3,7.5,12.8,13,19.9,18.5a129.44,129.44,0,0,0,21.1,12.9c13,6.8,27.7,9.8,40,17.8,8.9,5.6,17.8,12.9,20.8,23.4,2,6.2,0,12.8-2.2,18.7a44.63,44.63,0,0,1,12.1,19.2c3,10.2-.8,22.4-9.7,28.5-4.3,3.1-9.91,3.4-15,2.3-4.1-1.1-7.71-3.5-11.41-5.6,1.41,5.9,5.2,10.8,9.7,14.7-10-.8-20.5-2.3-29.29-7.5a50.67,50.67,0,0,1-13.21-10.7c-.7,16.1-3.29,33.2,3.3,48.6,2.7-7.4.91-15.1-.09-22.6,9.59,8.7,18.9,18.8,22.09,31.7,1.7,8,1.3,17.3-4.4,23.7-6.5,7.6-17.8,9.1-27,6.5-19.7-5.5-33.4-26-32.1-46.2.8-13.4,1.7-26.8,2.7-40.1a78.23,78.23,0,0,0-7.09-36.3,431.58,431.58,0,0,1-10,65.9,12.61,12.61,0,0,0,0,7.2c4.5,14.8,11.8,28.5,19.3,42,5.5,11.2,13.09,21.3,17.59,32.9,4,10.1,7.8,20.8,7.2,31.9-.09,9-4.79,18.5-13.29,22.1-8,3.5-17.3,1.9-24.5-2.7a205.1,205.1,0,0,1,10.4,33.4c1.9,8.8.6,18.5-4.9,25.8-6.5,7.9-19.21,8.2-27.1,2.2a39.79,39.79,0,0,1-10.3-13.4c-.6,5.7-1.3,11.4-2,17.2-1.1,10.6-4.1,21-4.5,31.7-.1,5,1.3,11.2,6.4,13.2s9.9-2.2,14.6-3.9c1.3,8.4,3,17.2.4,25.5-3.9,13.6-18.3,24.2-32.6,21.7a26.86,26.86,0,0,1-18-12.2c-2,6.8-5.9,12.8-10.3,18.2-6.1,7.4-9,16.7-12.5,25.4a100.85,100.85,0,0,1-6.6-9.5c-9.8,13.9-25.2,23.9-42.3,25.9-9.9,1.6-20.7.7-29.2-5.1,5.4-1.5,10.9-3,15.4-6.4,8.9-6.8,13.6-17.1,20.5-25.6-13.8,3.9-24.2,15.4-29.9,28.3-3.6-9.5-8.4-19.9-5.1-30.2,1.5-3.8-.1-7.9.6-11.8.5-6.3,4.4-12,9.5-15.6,6.4-4.9,14.4-7.1,22-9.4-2.1-.6-4.2-1.3-6.4-1.9a25.15,25.15,0,0,1,12.5-20.9c11.4-7.3,25.4-6.9,38-10.6a32.24,32.24,0,0,0,15.8-19.1c-6.1,2.6-12.6,4.9-19.2,5.5-.3-8-.3-16.1,1.6-24,1.2-5.4,3.4-10.9,7.4-14.8,8.4-7.6,20.8-9.4,28.7-17.7,5.2-5.3,7.1-12.9,6.9-20.1-4.5,2-9,4-13.4,6.2-3.5,1.4-4.9,5.1-6.9,7.9a431,431,0,0,1-112.9,113.6c-34.2-24-65.4-52.4-91.5-85.1,0,4.4.3,9,2,13.2,3,8.4,10,14.4,16.4,20.3a47.93,47.93,0,0,1-18.2,9.4c9.8,2.1,20.2.6,29.8,3.6A46.35,46.35,0,0,1,289,570.5c-1.8,3.3-5,5.4-8.2,7,12.8,1.7,25.9,7,34,17.4-7.1,4.2-15.3,5.1-23.3,5.9,11.4,5.7,22.3,14.1,27.7,26,5.7,12.6,2.9,27.8-5.4,38.5-2.5-5.8-5.2-11.7-9.7-16.3-6.5.8-13.3,1.9-19.8.6,6.4,8.9,11,19.2,11.3,30.3-4.1-3.9-7.9-8.5-13.4-10.7-9.3-3.7-19.3-5.3-28.1-10a46.11,46.11,0,0,1-18-15.9,72.92,72.92,0,0,1-6.4,15.3c-1.2-4.5-1.9-9.4-4.6-13.3-6.6-10.5-14-20.5-20.8-30.9a33.33,33.33,0,0,1-4.4-10.9c-9.3,2-19.4,3.1-28.3-.7a22,22,0,0,1-13.1-20.2c-.3-5.9,1.7-11.7,4.3-16.9,5.1,2.2,10.4,5.6,16.3,4.1,3-.5,4.1-3.7,4.5-6.3a36.73,36.73,0,0,0-3.8-19.6c-3.7-7.4-6.4-15.2-9.1-23-4.9,2.4-10.3,4.3-15.8,4a27.55,27.55,0,0,1-21.3-10.9c-5.7-7.2-7.5-17-5.8-25.9a30.75,30.75,0,0,1-16.6-13.9c-6.4-11.3-7.1-25.1-4-37.6,4.1-15.5,13.4-28.8,22.4-41.9,11.3-16.2,19.9-34.6,22.7-54.3a26.84,26.84,0,0,0-.2-7.5,380,380,0,0,1-9.8-67,99.16,99.16,0,0,0-5.8,58.9c1.6,9.2,4.5,18.2,5.9,27.4.7,9.7-1,20.2-7,28.1-8.7,11.7-29,11-36.8-1.3-4.1-6.3-4.7-13.9-5.5-21.2-3.1,11.1-3.2,22.7-1.8,34-6.5-6.2-13.6-12.2-17.7-20.4-3.8-6.7-4.4-14.6-3.8-22.1-10.8-1.5-20.9-9-24-19.6-2.3-7.3-.1-15,3.7-21.3-7.6-1.3-14.7-6.1-17.7-13.3-6.1-14.6,0-33.8,14.5-40.8-1.4-6.1-2.5-12.6-.6-18.7,3.8-13.9,16.1-24.8,30.2-27.5,6.8-1.6,13.9-.4,20.5-3.1,18.5-6.9,32.8-21,46.5-34.7,43.1-.4,86.1,0,129.1-.2-3.2-2.1-6-5.9-10.3-5.3-13.6.3-28-3.4-37.9-13.1a57,57,0,0,1-20.3,13.2,18.5,18.5,0,0,1-4.5-11.4c-5.3,3.9-11.3,7.2-17.9,8-7.7.7-15.2,2.6-22.8,4.5-.1-6.2,3.5-11.5,7.4-15.9-9.9,7.2-19.3,15.1-29,22.5-10.3,8.7-22.6,15.6-36.1,17.5a44.56,44.56,0,0,1-20.5-1.9c.7-5.5,3.8-10.1,6.6-14.8a120,120,0,0,0-17.8,11.5c-6.3,4.6-11.6,10.7-18.7,14a45.84,45.84,0,0,1-23.9,4.7c-2.8-1.4-2.7-5.3-3.9-7.8-2.8-9.9-2.2-21.5,4.3-29.9a39.82,39.82,0,0,1,13.9-11.2c-4.1-3.4-7.3-7.8-11.2-11.4-3.5-2-7.6,1.1-8.9,4.3-1,4.2,0,8.5.1,12.8C13.75,157,7,153,3.25,146c-4.4-7.5-4.6-17.7,1.1-24.6a26.7,26.7,0,0,1,20.7-10.3,50.88,50.88,0,0,1,12.8,1.5c-2.8-14.4.5-29.3,6.8-42.3-.4-3.5-3.1-6.5-3.6-10-2.8-9.7,2.2-20.3,10.3-25.9,7.8-6.4,18.3-7.8,26.4-13.6a30.58,30.58,0,0,0,7.5-7.3c2-4.4,2.3-9.3,3.6-13.5m-24,32.3C55.25,36,45.15,43.7,45.15,55c.7,3.7.6,9.2,4.4,11.1,13-8.2,26.9-16.3,36.1-28.9,4.3-6.1,6.4-13.9,4.1-21.2-6.6,7.5-15.5,12.8-24.9,16.3m27.7,7.4c-5.6,4.2-10.2,9.6-15.7,13.8a208.54,208.54,0,0,1-26.5,17.9,5.51,5.51,0,0,0-2.4,3c-3.7,8.1-5.2,17.1-5.8,26-1,14.7,6.3,29.2,17.5,38.5,7.2,5.9,16.7,7.5,25.6,7.6-6.6-4.9-13-10.7-16.1-18.4-5.2-11.8,1.6-27,13.7-31.3,9.3-3.5,19.5-2.1,28.7,1.2-.2-4.2-.5-9.2-3.9-12.2-5.4-4.9-12.7-6.4-19.4-8.4a41,41,0,0,1,21.4,2.1c10,4,18.6,11,28.6,15,12.8,4.4,27,2.8,39.4-2.2-8.5-4.4-18.3-5.3-27.4-7.6-7.7-1.3-15.7-4.4-19.8-11.4,4,1,7.9,2.5,11.8,3.8,8.4,2.8,17.3,3.9,26,5.7a42.1,42.1,0,0,0,28.4-2.2A72,72,0,0,1,183,77.3c-5.5-1.8-10.3-5-15.9-6.4-9.3-2.6-18.9-4.9-28.6-5.3-9.5,0-18.8,1.7-28.2,2.3,13.2-8.7,30-9.2,45.2-7.1,5.8.8,11.4-.9,16.9-2.4a118.86,118.86,0,0,1-22-8.8c-3.1-1.6-5.8-3.7-8.9-5.1-22.8,2-44,12.6-61.5,26.8a10.18,10.18,0,0,1,2.5-5.7c7.9-9.6,19.7-14.7,30.7-19.8,8-4.9,16.6-11,19.6-20.4-14.7-.1-28.6,5.8-40.2,14.3m487.8-13.8c.8,4.4,1.4,9,3.7,12.9,3.7,7.1,10.4,11.4,15.7,17,5.5,5.3,9.8,11.7,13.7,18.3a30.15,30.15,0,0,0,1.7-24.4c-2.7-7.3-10.3-10.8-17.2-13.3a48,48,0,0,1-17.6-10.5m-31.6,13.7c3.5,4.2,7.5,8.1,9.4,13.4,1.1,2.6.5,5.6.5,8.4-5.6-3.2-10.9-7.1-17.2-8.6a46.2,46.2,0,0,0-35,7.6c1.9,1.6,3.6,3.8,6.3,3.5a27.15,27.15,0,0,1,12.2,3c-5.3,1.1-11.1,1.3-15.4,4.8a55.92,55.92,0,0,1-13.5,8,34.38,34.38,0,0,0,19.1,6.1c10-.4,18.79-5.9,28.59-7.3,5-1.4,9.91.1,14.7,1.2-6.5.9-13,2.2-19,5.1-6.5,3.1-13.5,5.1-20.5,7.1a18.49,18.49,0,0,0,18,6.5c7-1.6,14.1-3.1,21.3-2.7,10.91-.2,22.1,3.1,30.1,10.7,3.7,3.4,5.3,8.2,6.8,12.9,4.8-4.2,9.4-8.9,12.3-14.6,3.7-6.4,3.9-14.4,2.6-21.5A55.58,55.58,0,0,0,588.64,54a76.33,76.33,0,0,1-6.2,15.4c-2.3-5.9-2.6-12.7-6.9-17.7-6.19-8.4-16.69-12.6-26.79-12.1m-399.3,1.5a58.92,58.92,0,0,0,17.2,9.8c9.1,3.9,19.1,5.9,28.9,4.5-10.4-13.8-29.8-18.7-46.1-14.3m323.2,10.6c-5.2,3.2-8.5,8.4-11.2,13.8,14.2-5.2,30.8-2.1,43.7-11a29.7,29.7,0,0,0-14.5-.5c-4.1.8-7.9,2.6-12.1,3.5,8.5-7.6,20.9-9.4,31.8-7.3,3.2.7,6.1-1.1,9.1-1.9A54.42,54.42,0,0,0,496,43.8c-8.3-.1-16.3,3.5-23.3,7.9m10.1,47.7c-7.8,1.1-14.5,5.7-20.8,10a80,80,0,0,1-51.4,13c-5.3-.4-10.4-2-15.7-2-7-.3-13.7,1.5-20.2,3.8-2.3-4.1-5.9-7.9-10.7-9-8.1-2-16.6.1-24.3,2.8,5.6,5,13,6.4,19.9,8.3a201.36,201.36,0,0,1-46.3,20.4,44.6,44.6,0,0,1,3.9,14.4c9.1-11.7,24.2-17.2,38.5-18,13.7-.6,27.1,4.5,37.9,12.8.1-7.8-3.1-15.1-8-21,16.1-1.5,32.8.5,47.8,6.8,6.5,2.6,11.6,7.6,18.2,10.3a51.17,51.17,0,0,0,23.5,3.9,37.8,37.8,0,0,0-8-9.8c-7.2-6-16.5-8.1-25.4-9.8a37,37,0,0,1,19.8.5c6.1,1.6,10.8,6,15.2,10.2,9.4,5.1,20.29,8.3,30.9,6.5-5.3-12.3-19.2-16.5-31.2-19.1,14.59-2.1,29.09,3,41.59,10.1,12.5,8.1,19.41,22.1,30.8,31.5,9.1,7.3,21.2,9,32.5,7.7-4.59-7.3-8-15.6-14.59-21.5-4.6-4.9-10.8-7.6-16.6-10.8-3.6-2-7.7-2.8-11.5-4.3,9.2-2.1,17.8,2.7,26.9,1.9,7.9-.5,16-3.6,21-9.9,5-6.7,4.9-16.2,1.4-23.4-3.2-7.2-10.8-11.1-17.8-13.3,2.1,9.1-.1,19.3-6.5,26.2-4.2,4.2-9.8,7.4-15.8,7.8-9.6.8-19.5-1.6-27.2-7.5,9.1-1.1,19-2.7,25.9-9.5a41.86,41.86,0,0,0-30.3-5.5c-6.1,1-11.7,3.8-17.6,5.4-11.8,3.4-24.6,3.9-36.4.3a50.47,50.47,0,0,0,33.6-19.6c-4.3-.4-8.7-1.3-13-.6m-404.9,7.9c-3.6,4.9-5.7,11.6-3.4,17.4,2.1,6.8,7.6,11.6,13.1,15.7,4.9,3.9,11,5.6,16.3,8.7-12.7,3.9-26.8,4.6-39.3-.6-10.4-4.1-18.5-12.6-23.9-22.3-3.2-6.5-10.6-9.4-17.4-9.5-4.6,0-8.8,2.5-12.3,5.4,9.2,3.3,17.5,9,23.1,17a42.25,42.25,0,0,0,17.4,15.3c14.6,6.7,31,7.3,46.9,7.6-3.8,7.2-9.7,13.6-11,22a44.69,44.69,0,0,0,20.5-2.2c17.6-6,29.9-20.9,45.4-30.5,6.8-4,13.9-8,22-8.5-2.7,4.9-6,9.3-8.8,14.1,13,.9,24.9-5.4,35.5-12.2a72,72,0,0,0,2.4,12.8c8.1-1.9,13.7-8.3,18.9-14.4,8.3-10,21.8-13.6,34.4-14.5,9.7.1,19.8,2.4,27.5,8.7,9.8,7.7,15.2,19.8,16.9,32,3.8.1,7.6.1,11.4.2-1.1-20.3-15.7-38.2-34.4-45.1-9.9-4.1-20.9-4-31.5-3.5-2.4.2-5.2.5-7,2.3-3.4,3.1-5.9,6.9-9.7,9.3-2.9,2.2-6.4,3-9.9,3.8,4-3.1,8.1-6.3,9.7-11.4-8.9,1.7-16.7,7.1-25.8,7.7-15.3,2.5-30.8-1.9-44.1-9.2-13.5-7.2-29.4-11.7-44.6-7.6,5.2,3.1,10.6,5.9,15.5,9.3,6.2,4.1,13.1,7,19.1,11.3a103,103,0,0,1-29.2,3.6c-9.7.1-19.8-1.2-28.6-5.7a17.88,17.88,0,0,1-8.8-20.8c1.6-5.4,5.8-9.4,9.8-13.1-6,.5-12.3,2.1-16.1,6.9m344.5,10.3a74.77,74.77,0,0,0,18-4.2c5.9-2.4,12.3-4.1,17-8.8-12.9-3.3-26.6,2.6-35,13m-234.9-9.9c8.7,4,16.1,10.8,25.9,12,6.1,1,12-1.2,17.9-2,4-.7,8-.8,12-1.2a65.47,65.47,0,0,0-16.9-9c-12.4-4.5-26.4-4-38.9.2m-23.1,1.5c8,4,16.9,7.3,26.1,6.7a43.89,43.89,0,0,0-26.1-6.7m448.1,4.4c-5.8.8-9.4,5.9-13.4,9.5-3.4,2.8-3.3,7.5-4.5,11.4-1.4,5.8-5.8,10.1-8.7,15.2,7.5-.6,14.59-3.5,20.9-7.3s10.1-10.2,16.4-14.1c7-4.5,15.3-5.9,23-8.7-3.8-3-7.7-6-12.7-6.8a70.55,70.55,0,0,0-21,.8m-325.4,8.7a58.8,58.8,0,0,1,23.1,20.3c2.7-1.8,5.9-3.8,6-7.4.6-8.8-5.6-15.8-10.2-22.7a26.5,26.5,0,0,0-18.9,9.8m342.6,9.2c1.8,1.1,3.7,2,5.5,3.2,4.6,2.7,7.2,7.6,10.7,11.6,2.5-4.3,5.5-8.9,4.9-14.1-.3-2-.4-5-2.7-5.5-6.5-1.5-13.3.6-18.4,4.8m-617.1,16c2.6-4.6,5.9-8.8,10.4-11.5a30.5,30.5,0,0,0-16.1-9c-3.1,7.2-.3,15.5,5.7,20.5m229.9-11.3c3.1,1.7,6,3.5,9.1,5.2,11.2,5.7,24.1,7.5,36.5,6.7-9.3-15-30.2-18.6-45.6-11.9M226,146.9c9.9,9.8,24.4,13.2,38,13,3.1-.5,5.3,1.9,7.7,3.3,7.3,4.6,16.1,6.1,24.7,6-.6-6-3.2-11.5-5.5-16.9-18.8,2-38.6-2.3-53.4-14.5a37.37,37.37,0,0,0-11.5,9.1m169.9-7a37.83,37.83,0,0,1,4.2,16.2c9.4-1.4,18-5.8,26.3-10.2a88.51,88.51,0,0,0-30.5-6m-45.1,11.6c-2.1,7.1-7.5,12.5-13.9,15.8,14.5.3,29.6-4,39.7-14.9a60.52,60.52,0,0,0-20.7-3.6c-2.2,0-4.8,0-5.1,2.7m81.3-2.1c-3.2,1.1-6,3.1-9,4.5-6.3,3.4-13.3,5.2-20.1,7.6,5.5,3,11.6,5.7,17.9,4.6a30.53,30.53,0,0,0,19.5-13.9c-2.5-1.3-5.1-3.7-8.3-2.8m-114.9,20c12.2-1.1,23.9-8.3,29.3-19.4-11.8,2.1-21.8,10.1-29.3,19.4M579.45,152a70.91,70.91,0,0,1,23,18.4c9.2,10.7,23.9,16.3,37.8,13.7-5.1-5.8-11-11.1-14.7-17.9a26.55,26.55,0,0,0-13.9-13.3c-10.4-3.9-21.5-1.7-32.2-.9m-219.9,17c15.7.4,31.5.2,47.2,0a163.81,163.81,0,0,1-25.5-14.4c-5.4,7.4-13.9,10.8-21.7,14.4m-332.3,5.8c-2.7,7.3-1.2,15.3,1.4,22.4,9.3-.3,18.8-3.3,25.8-9.7,9.9-8.4,20.2-17.2,32.6-21.5-14.2,0-29-1.3-41.7-8.3-7.7,3.3-15.2,8.8-18.1,17.1m119.3-.4c.2,26,.1,52,.2,78-.1,3.7,2.3,6.7,3.8,9.9,10.3,21.7,21,43.3,31.5,64.9,12.2-24.3,24.5-48.6,36.7-72.7,12.3,24.3,24.3,48.7,36.7,72.9,12-24.4,24.4-48.7,36.7-72.9,12,24.4,24.5,48.4,36.3,72.9,12.5-24.3,24.6-48.7,36.9-72.9,12.3,24.3,24.3,48.7,36.5,73,12.1-24.4,24.5-48.7,36.7-73,12.1,24.4,24.5,48.6,36.4,72.9,11-22.5,21.7-45.2,32.7-67.7,1.1-2.3,2.6-4.6,2.5-7.4,0-26-.2-52,.1-78q-181.65,0-363.7.1m-51.3,34.8c-6.8,2.7-14.7,3.2-20.4,8.2-6.2,5.1-11.6,12.9-9.7,21.2,1.6,5.8,5.9,11.6,12.2,12.6,8.1,1.6,15.8-2.3,22.6-6.3-3,11-10.9,21.1-22,24.8,1,4,2.2,8,2.1,12.2,0,8.9-3.9,18.3-11.7,22.9-3.8,2.4-8.3,2.7-12.6,3.8,1.6,2.4,3,5.3,5.7,6.7,5.6,3.1,13.5,2.3,17.5-3,3.3-4.5,4.2-10.2,5.4-15.6,9.5,8.1,14.4,21.7,10.7,33.9-2.1,5.9-5.8,11.8-11.6,14.7-2.6,1.5-5.7,1.8-8.3,3.3-2,9.6,1.8,19.9,8.3,27,.1-21,9.1-41.5,23.6-56.5a116.63,116.63,0,0,1,1.5-30.1c2.3-11.3,5.5-23,13-32.1-2.7,11.2-6.1,22.2-7.5,33.7-1.5,11.9-2.5,24.3.6,36.1,1.7,9,4.9,17.6,5.2,26.8,3.7-2.2,7.5-4.9,9.4-8.9,3.7-6.8,2-14.7.7-21.8-4-22.9-.5-47.3,10.9-67.7.4-17.4.2-34.9.2-52.4-3.4,3.8-7.1,7.5-10.9,11-8.7,7.6-19.2,12.6-30,16.3,11.8-8.7,24.1-17.2,33.6-28.5,2.5-3.1,5.4-6,7.1-9.6.7-5.3.3-10.6.1-15.8-13.2,13.4-27.6,26.6-45.7,33.1m420.6-30.8c-.3,25.3,0,50.8-.2,76.1-.3,4.8,3.2,8.2,5,12.2a68.52,68.52,0,0,1,6.9,29.8c.1,9.8-.1,19.7-.4,29.6,0,5-1.8,10.3.6,15,3.4,6.8,9.5,11.8,16,15.5,4.3,2.4,10.2,2.3,13.9-1.3-2.4-6.8-5.4-13.3-6-20.6a172.77,172.77,0,0,1,3.8-50.2c1.9,3.4,3.6,7,5.6,10.3a36.33,36.33,0,0,0,25.5,16.6c-3.2-9.7-1.9-21-8.4-29.4-3.5-5.4-9.91-7.5-15.6-9.6a56.87,56.87,0,0,1,13.8-6.1c-2.8-3.7-5.1-7.9-8.1-11.4-4-2.4-8.9-3.3-12.8-6-5.2-3.3-8.7-8.5-10.9-14.1,4.9-1.8,10.9-2.8,13.8-7.7,2.59-3.9.3-8.7-1.6-12.3-7-12-19.6-18.5-30.1-26.9-3.5-3.3-7-6.5-10.8-9.5m44,30.6c3.2,5.5,7.1,11.7,5.2,18.4-2.1,5.6-8.1,8-12.8,11.2,3.4,4.1,7.5,8,12.8,9.3s11.7,1.6,15.8-2.5c4.4-4.5,4-11.5,3-17.2-1.6-4.9-3.9-9.9-8-13.2-4.9-3.3-10.7-4.4-16-6M54,228.2c-4.3,5.9-4.7,13.6-3.6,20.6,2.6,9.1,11.6,16.6,21.3,16,6.2.1,11.4-3.9,15.8-7.8-6-.2-12.6.6-17.8-2.7-8.5-5-13.5-16-10-25.5,1.9-6.2,6.8-10.7,11.7-14.6-6.6,3.3-13.4,7.5-17.4,14m532.9-8.6c3.1,7.8,5.7,17.1,1.7,25-2.8,5.5-8.9,8-14.6,9.6,5.2,7.5,14.7,12.6,24,11.2,10.3-1.5,17.2-13.8,13.1-23.3a40.08,40.08,0,0,0-16.4-17.9,10.47,10.47,0,0,0-.8,1.1c2.3,2.8,5.3,5.5,6.8,9,3.8,7.2,2,17.1-4.8,22-4.6,3-10.6,3.1-15.8,1.9,4.1-1.5,8.7-2.7,11.6-6.2,5-4.3,5.3-11.6,3.9-17.6-.6-3.8-3.6-7.2-2.4-11.2a28.41,28.41,0,0,0-6.3-3.6M47.35,270.5c1.9,6.5,10,9.9,16,7.3,3.1-1.6,5.4-4.2,7.6-6.8-4.2-.8-8.5-1.3-12.2-3.6-3.8-1.8-6.6-5.1-9.5-8-1.5,3.4-3.4,7.2-1.9,11.1m-12.2,6.4c-1.6,5.9-.1,12.3,2.7,17.7,3,5.7,9.8,7.9,15.8,8,5.5.4,11.5-1.2,15.2-5.5,4.3-5.4,6.2-12.7,4.3-19.3-4.6,3.6-10,7.4-16.3,6.5-4.4-1.1-8.9-3-12-6.2-3.1-3.7-3.7-8.5-4.7-13-1.8,3.9-4.1,7.5-5,11.8m576-12.2c.6,4.3,2.2,8.9.2,13.1-1.8,4.5-7.1,6.3-11.5,6.1-5.6-.2-9.1-5.1-13.3-7.8-3-2.3-6.7-3.1-10.1-3.7,2.8,2.8,6,5.4,8.1,8.8,2.6,3.9,3.7,8.4,5.1,12.9,1.3,5,6,7.8,10.3,9.8,4.9,2.3,11.2,2.7,15.5-1.1a22.36,22.36,0,0,0,5.9-22.6c-2-6-5.9-11-10.2-15.5m-404,24.6c-8.4,16.3-15.9,32.9-24.8,49-5.2-6.9-8-15.2-12.2-22.6-7-15.7-15-31-22.1-46.7-.6,12,1.9,23.9,3.4,35.7a484.88,484.88,0,0,0,16.1,65.2,431.25,431.25,0,0,0,61.5,120.9c10.8,15.6,23.6,29.8,36.5,43.7,12,12.2,24.4,24.4,38,34.9,7.5,5.8,14.6,12.2,22.6,17.5,2.1,1.6,4.4,0,6.3-1.2,26.5-19.5,51.3-41.6,72.8-66.5,18.3-20.6,34.1-43.4,47.9-67.1a551.45,551.45,0,0,0,30.5-65.2c9.4-26.4,17.1-53.4,21.6-81.1,1.9-11.8,4-23.7,4.1-35.8-3.91,5.9-6.3,12.5-9.5,18.7-5.2,10-9.8,20.3-14.91,30.3-3.29,6.3-5.7,13.1-9.9,18.9-13.9-22.8-23.2-47.9-36.4-71-12.9,23.6-24.1,48.2-36.6,72.2-13-23.6-23.6-48.4-36.4-72.2a77.77,77.77,0,0,0-5.5,9.7c-6.5,13.5-13.4,26.7-19.9,40.1-3.9,7.5-7.3,15.2-11.7,22.4-9.5-18.8-18.6-37.9-28.2-56.7a104,104,0,0,0-8.2-15.5c-9,16.5-16.8,33.6-25.4,50.2-3.8,7.1-6.8,14.7-11.2,21.3-4.1-5.9-6.8-12.8-10-19.1-9-17.4-17.1-35.1-26.4-52.5-5,7.2-8,15.1-12,22.5m383.6-18c3,3.4,6.4,8,11.5,7.1,3.8-.7,4.1-5.3,4-8.4a113,113,0,0,1-15.5,1.3M79.15,319.8c-5.2,3.2-11.7,3.4-17.5,1.7-4-1.3-6.9-4.6-9.7-7.5-1.1,3.9-2.4,8-1.6,12.1,1.2,5.7,5.4,10.3,10,13.6,5.8,4.1,14,4,20.2.5,9.9-6,12.7-20.5,6.4-30.1-2.2,3.5-4.4,7.4-7.8,9.7m18.4,23.3c2.4,3.7,4.7,7.8,8.8,9.9,2.2,1.3,4.9,1.3,7.3,1.5.3-9.7-3.5-18.9-5.1-28.4a85.19,85.19,0,0,0-11,17m471.3,1.3c-.5,3.6-1.3,7.2-3.3,10.2a18.45,18.45,0,0,1-19,9c-8.2-1.6-15.3-7.3-20.1-14a41.12,41.12,0,0,0,17.5,30c7.3,1.3,15.7-1.2,20.5-7,4-4.8,4.9-11.1,5.9-17,1.6,5.2,2.8,11,.6,16.2-2.5,6.9-9.6,10.7-16.3,12.6,5.8,1.3,12.5.7,17.4-3,5.3-4.1,7.1-11.4,5.9-17.8-.8-7.2-5.1-13.3-9.1-19.2M451.45,465.6a100.89,100.89,0,0,1,15.2-5.2c1.6,6.8,2.1,13.9-.5,20.6-2.3,6.5-7.6,11.4-12.9,15.5-7.1,5.2-15.9,7.5-22.6,13.4-6.2,7.3-6.2,17.5-6.6,26.5a72.7,72.7,0,0,0,19.8-8.5,43.59,43.59,0,0,1-8.8,25.7c10.8-3.9,20.1-12.3,23.1-23.5,3-11.5,3.1-23.6,7.2-34.8,1.8-4.6,5.6-9.4,11-9.4,6.5,6.8,15.7,11.3,25.1,11.4,5.3,0,8.4-5.6,8.7-10.3.4-9-3.2-17.4-6.4-25.7a140.24,140.24,0,0,1-7.9-29.9c-1.5-12.2-2.2-25.3,2.5-37,.5.7,1,1.6,1.5,2.3-1,12-1.3,24.7,2.5,36.3,5.3,5.3,12.2,10.4,20.09,9.8,3.5-.1,5.91-2.7,8-5.3-2.59-14.6-8.9-28.4-17.4-40.5-6.8-9.3-9-21.1-9.6-32.4-.59-6.2,1.21-12.6-1.2-18.5a440.15,440.15,0,0,1-50.79,119.5M118.05,359.5c-6.8,2-13.3-.9-19.3-3.9.2,5.9-.7,14.1,5.8,17,6.6,3.9,14.4,1.3,21.4.4-3.7,5.4-10.6,5.9-16.3,7.8,4,1.1,8.3,2.6,12.5.8,7.3-2.3,10.9-10,13-16.8a37.86,37.86,0,0,1-14.9,2.7c3.9-3.3,8.3-6,11.8-9.8,2.5-2.7,3-6.7,3.5-10.1-5.5,4.8-10.1,10.9-17.5,11.9m38-8c-.8,6.3-1.7,12.6-2.9,18.8-2,11.6-6.1,22.8-10,33.9-5,13.3-12.7,25.8-13.8,40.2-.6,4.6,1.3,9.7,5.3,12.2,2.5,1.9,6.1.7,8.4-1.1,4.3-3.3,6.1-8.7,8.3-13.3,3.3,2.7,6.9,5.5,8.5,9.6a30.29,30.29,0,0,1,1.2,18.8c-1.6,6.5-6.4,11.4-11.3,15.6a14.91,14.91,0,0,0,17.1.7c3.9-2.3,5.3-7.2,9.1-9.5a80.08,80.08,0,0,1,10.4,10.6c6.5,7.7,12.6,16.2,16.3,25.6,2.7,7.6,3.4,16,7.9,22.9a30.59,30.59,0,0,0,14.1,9.9c7.2,2.2,14.7.2,21.2-2.8-6.2-7.9-13.5-16-14.7-26.5-1.1-4.4.8-8.9.3-13.3-1.9-3.8-5.1-6.9-7.4-10.4-30.8-42.6-53.7-91.1-68-141.9m348.8,3.1c-.1,9.3,2.8,18.2,6,26.7,2.7,7.3,7.6,13.4,11.5,20.1,4.4,7.6,8.9,15.4,10.3,24.2-.1-5.9.3-11.8-1.1-17.6-1.4-6.5-5.8-11.8-8.9-17.6-6.6-11.6-11.8-24-17.8-35.8m-361.5,26c-4.5,10.4-12,19.1-17.8,28.7-7.6,11.7-14.5,24.8-14.9,39.2.1,9.9,2.2,20.5,9.3,27.9,6.5,7,17.8,8.7,26.3,4.3,9.6-5.1,12.9-18.7,7.1-27.8-2.4,3.2-4.9,6.7-8.4,8.5-6.3,3.1-15.1,1.3-18.8-5-3.6-5.7-3-12.8-1.8-19.1,3.4-16.4,12.6-30.7,17.7-46.4,2.3-7.2,5-14.4,5.8-22-1.6,4.2-2.7,8-4.5,11.7m392.5,58.3c-3,6-9.8,10.2-16.6,9.1-5.2-1.1-9.8-3.7-14.8-5.5a32.76,32.76,0,0,0,8.4,16.8c4.5,4.5,11.4,7.1,17.8,5.2,6.6-1.2,11.3-7.4,12.5-13.8a40.1,40.1,0,0,0-3-23.9c-1.5,3.9-2.4,8.1-4.3,12.1m-66.3,57a183.92,183.92,0,0,0-3.7,27.4c-.7,7.6-3.3,15.1-8.2,20.9-8.7,11.6-23.4,15.8-36.8,19.2-11.4,3-23.9,3.1-34.4,8.9-5.2,2.6-8.7,7.4-10.6,12.9,4.4.7,9.1,1.7,13.5.6,4.3-.9,8.4-2.8,12.7-4.1-1.6,2.8-3.2,5.9-6,7.7-11.9,7.9-27.7,6.9-38.9,16-3.6,2.5-5.4,6.7-6.9,10.7,5.9-4,12.3-7.3,19.3-8.8,11.9-3.1,25-2.3,36-8.4,7.3-3.9,11.3-11.4,14.8-18.6.2,5.5.7,11.3-1.2,16.6a95.46,95.46,0,0,0-4.8,17.4,30.66,30.66,0,0,0,5.4,22.9c3.2-5.8,6-11.8,10.3-16.9,6.6-7.9,10-17.9,11.5-28,3.8,6.6,7.5,13.7,14,18.2a18.18,18.18,0,0,0,15.5,2.8,25.78,25.78,0,0,0,18-32.3c-7.1,2.2-15.7,0-19.5-6.8-4.5-8.4-2-18.2-.5-27.1a309.64,309.64,0,0,0,5.1-33c.1-9.2,2.1-18.3,1.2-27.4a15.15,15.15,0,0,0-5.8,9.2m-336.9-7.4c-.3,5.6-.3,11.5,2.1,16.7,3.6,8.7,13.2,14.6,22.5,13.4,6.8-.8,13.8-4.5,16.5-11.2,2.9-6.1,2.4-13,1.6-19.4a43.55,43.55,0,0,1-6.1,4.5c-6.3,3.8-14.7,3.7-21.2.3-2-1.2-3.5-3.2-5.5-4.3-3.3,0-6.5.1-9.9,0m49.2,3c.7,8.8-1.1,17.9-6.9,24.8,3,7.9,5.5,16.2,9.3,23.8a41.57,41.57,0,0,1,4.4,22.7,13,13,0,0,1-7.5,11.3c-5.4,1.8-10.9-.2-16.1-1.5-2.7,7.7-1.5,17.5,5,22.9,8.4,4.7,18.9,4.6,28,1.8a36.72,36.72,0,0,1,5.5-22.1c.2,8.7-1.3,17.4,1.1,26,1.2,6.9,5.9,12,9.5,17.7,5.1,7.7,10.7,15,15.3,22.9,6.2-22-.2-45.5-11.4-64.7a389.56,389.56,0,0,0,42.1,13.6,147.84,147.84,0,0,0,18.6,4.4c8.1,1.2,16.3-.6,24.1-2.7a64,64,0,0,0-15.1-7.9c-9.1-3.9-19.2-3.2-28.9-5.1-12.7-1.5-25.3-4.8-36.1-11.7,9.7,1.9,19.3,4.9,29.2,6.1,9.8,1.8,21.2,2.3,29.6-4.2-8.2-5.1-17.4-8.8-27.1-9.7s-19.3-2-28.4-5.8c-10.4-4-19.6-11.8-24-22.3-2.6-5.6-2.7-11.9-5.2-17.5-3.5-8.4-9-16-15-22.8m329.8,6.5c-3.3,3.8-8.7,5-13.4,5.1-6.2.2-11.6-3.4-17.1-5.8.7,2.6.7,5.9,3.2,7.6,6.2,4.3,14.1,4.4,21.4,4.4-2.9,1.7-5.6,3.7-8.9,4.3-3.6.4-7.1-.1-10.6-.2,2.8,4.4,6.3,9,11.6,10.6,6.3,2.8,13.9-.4,17.4-6.2-4.6-.2-9.4-.1-14,0,4.9-2.5,10.1-4.6,14.1-8.7,3-4.9,1.1-10.9.1-16.2a28.2,28.2,0,0,1-3.8,5.1m-287.9,83.5c3,4.2,6,8.3,7.8,13.2,1.3,3.2,2,6.9,4.9,9.2,9.5,8.2,20.7,14,31.7,19.9,10.2,5.5,21.5,8.9,31.5,15,5.5,3.3,9.6,8.1,14.1,12.6,1.4-5.1,3.1-10.4,1.7-15.7-1.3-7.6-5.8-14-11.1-19.4-8.8-8.7-20.2-14.4-32-17.3-16.6-4.7-32.3-12.1-48.6-17.5M373,648.6a35.55,35.55,0,0,1-14.4,13.3c13.7,1.1,28-2.4,38.9-10.9,5.7-4.1,10-9.8,14.2-15.3-1.1-3-2-5.8-2.8-8.8-8,11.2-18.9,20.7-31.7,26.2,4.1-4.1,8.8-7.6,12.5-12.1,6.1-7.2,12.7-14.2,17.7-22.4,1.9-4,1.8-8.5,2.7-12.9A166,166,0,0,0,373,648.6m5.1-37.3c-8.5,1.6-17.7,3.5-24.4,9.5-5.4,5.5-5.7,14.2-2.9,21.1,6.9-6.8,13.9-14.7,23.9-16.8,3.8-1.2,8.4-.5,11.3-3.8,4.1-4.2,8.5-8,11.9-12.8-6.7.4-13.3,1.9-19.8,2.8m-141.5-.2c.2,7.4.7,14.7,1.5,22.1,1.2,7,6.4,12.3,11.7,16.6,10.6,7.7,23.9,9.7,35.9,14.5-3.5-7.7-8-15.1-14.2-21,8.4,0,16.8.8,25.2.4a90.45,90.45,0,0,0-14-6.8c-7.4-2.8-14.2-6.9-21.4-10.3C252.55,622.1,244.65,616.4,236.55,611.1Z"/><path class="cls-1" d="M592.55,38c5.1,3.6,10.8,6.4,15.3,10.8,3.3,3,4.1,7.3,4.5,11.4-3.2-3-6-6.1-9.4-8.8-2.7-2.2-5.8-4-8.1-6.7C593.15,43.1,593.05,40.4,592.55,38Z"/><path class="cls-1" d="M518.85,59.3c7.9-3.3,17.2-4.5,25-.5,3.5,1.6,6,4.4,8.2,7.4-5.9-1.9-11.7-4.2-17.8-5.3C529.15,60.2,524.05,59.8,518.85,59.3Z"/><path class="cls-1" d="M564.45,60.8c3.3,4,5.4,9,9.3,12.6,4.4,4.1,9.4,7.5,13.1,12.3a24.61,24.61,0,0,1,5.3,15.9c-5.6-5.8-9-13.4-15.3-18.5-3.7-3.1-7.6-6-9.8-10.3C564.75,69.2,564.55,64.9,564.45,60.8Z"/><path class="cls-1" d="M591.45,69.7c.4-.2,1.4-.5,1.9-.7,7.1,6.4,12.5,15.9,10.9,25.9,0,2.6-2,4.5-3.6,6.3-1.3-5.5-1.6-11.2-3.3-16.6C595.65,79.4,593.55,74.5,591.45,69.7Z"/><path class="cls-1" d="M524.55,73.9c8.3-2.7,17.4-4,25.8-.8-7.8,1.5-15.8,2.3-23.3,5.4-6.9,2.7-14.9,4-21.6.4C511.75,77.3,518.25,76.1,524.55,73.9Z"/><path class="cls-1" d="M530.55,93.9c8.5-3.5,17.1-8.9,26.8-7.9,4.6,0,9.1,1.8,13.2,4-4.4.2-8.9-.1-13.2.4-5.4.6-10.4,2.8-15.8,3.7A40.47,40.47,0,0,1,530.55,93.9Z"/><path class="cls-1" d="M144.55,126.6c11.1-1.2,20.7,5.5,30.1,10.3C163.75,136.4,154.35,130.5,144.55,126.6Z"/><path class="cls-1" d="M126,149a60,60,0,0,1,26.3-2.2c-9.9,2.8-19.9,5.6-30,8-7,1.7-14.5,2.8-21.4.3C109,152.5,117.65,151.6,126,149Z"/><path class="cls-1" d="M589.75,155.1a30.1,30.1,0,0,1,21.3,13.9c3.1,4.5,7.9,7.1,11.9,10.7-6.9-1.8-13.6-5.2-17.8-11.1C601,163.1,595.45,159,589.75,155.1Z"/><path class="cls-1" d="M610,156.9c4,.8,8,2.6,10,6.3,2.3,4.3,4.3,9.1,8.3,12.1-5.2-.3-8.9-4.2-10.9-8.7C615.75,163,612.65,160,610,156.9Z"/><path class="cls-1" d="M115.85,163.3c4.7-2.3,10-2.4,15.1-2.3-8.3,3.4-17,6.7-23.9,12.5-2.7,2.2-5.3,4.7-8.1,7C100.45,171.9,108.45,166.7,115.85,163.3Z"/><path class="cls-1" d="M34.05,176.8c3.4-6.1,10.4-8.4,16.9-9.6-2.7,2.5-5.9,4.4-8.5,7.2-4.2,4.4-7.2,9.7-10.2,14.9C31.65,185.1,31.65,180.5,34.05,176.8Z"/><path class="cls-1" d="M50.25,174.8c4.7-4.8,11.8-6.4,18.4-5.7-4.4,1.9-8.9,4.1-12.6,7.3-3.9,3.2-7.1,7.1-10.8,10.4C46,182.6,47.05,178.1,50.25,174.8Z"/><path class="cls-1" d="M525.25,195.3c5.6,3.2,10.8,7.2,16.4,10.6,7.5,4.6,14.1,12,14.7,21.2-3.7-4.4-7-9.3-11.6-12.8-4.9-3.6-10.3-6.3-14.9-10.4C527.15,201.6,526.35,198.3,525.25,195.3Z"/><path class="cls-1" d="M570.15,219.1c2.9,1.7,6,3.5,7.2,6.9,1.9,5,.9,11.2-3.2,14.8-2.3,2.1-5.6,2.4-8.7,2.8,2.2-3.1,5-5.8,6.5-9.3C573.75,229.1,571.35,223.9,570.15,219.1Z"/><path class="cls-1" d="M528.35,220.3c2,2.5,3.8,5.2,5.6,7.8,4.5,7,12,11.9,15.1,19.9,2.8,5.6,2.7,11.9,2.5,18a70.56,70.56,0,0,0-9-18c-3.3-4.8-7.7-8.7-10.6-13.7C529.55,230.1,528.65,225.3,528.35,220.3Z"/><path class="cls-1" d="M84.35,226.8c3.3-1.1,6.1-3.2,9.1-5-1.1,2.2-2,4.5-3.9,6.1-4.3,3.7-10.1,4.4-15,7.3-2.6,1.6-4.5,4.1-6.9,6.2.7-3,1.7-6,3.9-8.2C74.85,229.5,80,228.5,84.35,226.8Z"/><path class="cls-1" d="M111.45,246.6c7.3-8.2,16.3-14.8,22.8-23.6a38.15,38.15,0,0,1-14,21.8c-7.1,5.6-12.8,12.6-18.7,19.3C102.75,257.2,106.75,251.3,111.45,246.6Z"/><path class="cls-1" d="M522.85,224.8a73.41,73.41,0,0,0,9.1,14.9c3.7,4.7,8.2,9,11.1,14.2a49,49,0,0,1,5.4,20.2c-4.2-5.8-6.9-12.7-11.5-18.3-4.9-6.1-10.1-12.1-12.9-19.5C522.65,232.7,523.05,228.6,522.85,224.8Z"/><path class="cls-1" d="M55.75,243.5a95.17,95.17,0,0,1,6.5,8.8c3.3,4.3,9.1,4.8,13.8,6.3-4.3,2.1-9.4,3.6-13.8.8C56.25,257,55,249.5,55.75,243.5Z"/><path class="cls-1" d="M526,249.1c2.7,6.9,5.8,13.6,8.9,20.4,2,5,4,10,4.1,15.4.2,5.7.1,11.3-.1,17-.2,8.4-2.6,16.8-2.3,25.3-.2,5.8,2,11.3,3.7,16.8a20.88,20.88,0,0,1-8.7-17.8c.3-12,3-23.9,2.2-36C533.85,276.1,525,263.5,526,249.1Z"/><path class="cls-1" d="M125.75,266.1a40.74,40.74,0,0,1,10.6-11.7c-7,11.9-11.4,25.1-14.9,38.4C121,283.9,121.05,274.2,125.75,266.1Z"/><path class="cls-1" d="M563.35,276.6a69.77,69.77,0,0,0,9.8,14.9c3.4,3.8,5.2,8.8,6.3,13.6-5.9-4.6-11.6-9.8-15.2-16.5C562.25,284.9,563.05,280.6,563.35,276.6Z"/><path class="cls-1" d="M615.35,278.5c3.3,5.5,2.6,13.6-2.6,17.6-7.3,4.3-17.5.5-20.4-7.4,3.3,1.7,6.5,4.3,10.4,4.1a12.93,12.93,0,0,0,11.6-7C615.25,283.5,615.05,280.8,615.35,278.5Z"/><path class="cls-1" d="M44.65,286.1c3.6,1.5,7,3.5,10.8,4.5,3.8.6,7.6.1,11.4.2-4,5.2-11.4,7.3-17.2,3.9C46,293.3,45.55,289.2,44.65,286.1Z"/><path class="cls-1" d="M77.45,332.8c3.6-1,6.6-3,10-4.4-.5,9.2-12.1,12.6-19.4,9a40,40,0,0,1-3.2-4C69.05,333.1,73.35,333.6,77.45,332.8Z"/><path class="cls-1" d="M157.55,374.6c4.9,12.5.1,26.1-5.2,37.6-3.6,7.4-6.1,15.2-10.1,22.3-2.6-11.7,3.6-22.5,8-32.9C154.35,393.1,155.05,383.6,157.55,374.6Z"/><path class="cls-1" d="M500.85,398c.3-.7,1-2,1.3-2.7,3,8.2,8.5,15.1,13.8,22,4.9,6.3,6.1,14.6,5.6,22.4-2.6-8.7-7.9-16-13.2-23.2C504.15,411.1,502.35,404.6,500.85,398Z"/><path class="cls-1" d="M163.05,399.8c4.3,7,1.2,15.3-2.1,22.1-3.3,6.2-5,13.1-7.7,19.6-1-2.7-2.4-5.5-2.1-8.4.4-5.1,2.7-9.6,4.7-14.1C158.65,412.7,160.85,406.3,163.05,399.8Z"/><path class="cls-1" d="M485.25,446.9c-1.3-7.4-.5-15.4,3.7-21.8,0,10.6.2,21.5,5,31.2,4.2,8.2,8.8,16.8,9.5,26.3a17.51,17.51,0,0,1-1.2,7.8C499,475,487.75,462.4,485.25,446.9Z"/><path class="cls-1" d="M530.35,449.2c3.2-1.4,5.2-4.2,7.5-6.7-.6,3-.8,6-2.2,8.7-2.8,3.5-7.8,4.8-12,3.9-3-.4-4.8-3-6.6-5C521.35,450.2,526.15,451.2,530.35,449.2Z"/><path class="cls-1" d="M172.75,443.3c2.4,7.5,4.9,15.2,9.3,21.8,5.4,7.9,12.9,14.1,17.6,22.5,5.8,10,11.9,20.7,11.9,32.6-3.9-4.2-4.9-10-7.4-15a104,104,0,0,0-17.2-25c-5-5.2-9.6-10.8-12-17.5C172.35,456.6,172.35,449.8,172.75,443.3Z"/><path class="cls-1" d="M518.85,458.7a38,38,0,0,0,19.6-4.5c-1.4,3-2.5,6.7-6.1,7.6C527.75,464.4,522.85,461.4,518.85,458.7Z"/><path class="cls-1" d="M141.35,471.8c4.5-1.4,7.5-5.2,10.6-8.6-1,5-3.1,10.3-7.8,12.6-5.7,2.7-13.2,3.1-18.4-1-3-2.3-4.5-5.7-6.3-8.9C125.45,471.1,133.55,474.4,141.35,471.8Z"/><path class="cls-1" d="M453.15,507.1A32.48,32.48,0,0,1,464,491.6c-2.7,6.9-6.2,13.6-7.5,21-1.4,9.2-3.1,18.9-8.7,26.5.2-3.7,1.4-7.3,2-10.9C451.05,521.2,450.65,513.8,453.15,507.1Z"/><path class="cls-1" d="M140.15,497.8c5.6,3.8,12,8.1,19.2,6.9,4.5-.5,8.1-3.6,11.8-6-2.2,4.1-5.2,8.2-9.7,9.8C153,511.9,141.55,507.2,140.15,497.8Z"/><path class="cls-1" d="M214.45,502.4c3.9,9.2,7.6,18.5,13.2,26.8,2.5,3.7,5,7.5,7.4,11.3-7.5-4-14.4-9.9-17.5-17.9C214.45,516.3,214.55,509.3,214.45,502.4Z"/><path class="cls-1" d="M446.25,560.3c4.6-2.5,8.5-6.2,12.8-9.5-2,5-4.4,10.1-9,13.2-10.7,7.9-24.5,8.9-37.4,9.5-6-.1-12,.9-18,1.4,7.5-6.1,17.4-6.8,26.6-8.1C429.75,565.9,438.55,564.3,446.25,560.3Z"/><path class="cls-1" d="M463.65,592.1c-5.6-5.2-4.9-13.6-2.5-20.2,1.7,4.8,2.6,9.8,5.6,13.9s8,5.4,12.2,7.6C474.05,595.8,467.45,596.4,463.65,592.1Z"/><path class="cls-1" d="M424.35,599.6c3.6-6,6.9-12.1,10.3-18.2,0,3.6.2,7.3-.9,10.8-1.8,5.8-5.9,10.3-8.3,15.8-2.3,4.7-3,10-4.2,15.1-1.1-3.6-2.1-7.2-1.7-11C419.75,607.6,422.05,603.6,424.35,599.6Z"/><path class="cls-1" d="M399.35,593.9c5.6-2.6,10.4-6.5,15.7-9.9-1.7,4.6-4.1,9.2-8.3,11.9-7.6,5.1-17.3,7.5-26.2,4.8C386.55,597.4,393.35,596.7,399.35,593.9Z"/><path class="cls-1" d="M452.45,583.7c1.5,5.1,2.6,10.9,7.3,14,4.8,3.8,11.2,2,16.8,2.5-2.1,2.4-4.2,5.2-7.4,6.2-6.11,2.4-13.5-1-16.8-6.4C450,594.9,451.15,589,452.45,583.7Z"/><path class="cls-1" d="M245.55,624.5c4.9,3.4,10,7.2,16.1,7.6,6.3.5,13.1,1.5,17.8,6-6.5-.5-13.1-1.8-19.6-2.1A18.19,18.19,0,0,1,245.55,624.5Z"/><path class="cls-1" d="M245.75,633.3c4.3,3.8,7.8,8.4,12.6,11.9,4,3,8.5,4.9,13,7-9.1.2-17.4-5.1-22.8-12C247.05,638.2,246.55,635.8,245.75,633.3Z"/><path class="cls-3" d="M64.85,32.3c9.4-3.5,18.3-8.8,24.9-16.4,2.3,7.3.2,15.1-4.1,21.2-9.2,12.7-23.1,20.7-36.1,28.9-3.9-1.9-3.7-7.4-4.4-11.1C45.15,43.7,55.25,35.9,64.85,32.3Z"/><path class="cls-3" d="M580.35,25.9c5,5,11.2,8.2,17.7,10.6,6.9,2.5,14.5,5.9,17.2,13.3a29.76,29.76,0,0,1-1.7,24.4c-4-6.5-8.2-13-13.7-18.3-5.3-5.6-12.1-10-15.7-17-2.4-4.1-2.9-8.7-3.8-13M592.55,38c.5,2.3.7,5,2.3,6.9,2.3,2.6,5.4,4.4,8.1,6.7,3.4,2.5,6.3,5.8,9.4,8.8-.5-4.1-1.4-8.5-4.5-11.4C603.25,44.4,597.55,41.7,592.55,38Z"/><path class="cls-3" d="M548.75,39.6c10.1-.4,20.6,3.8,26.9,11.8,4.2,5.1,4.4,11.8,6.9,17.7a78.75,78.75,0,0,0,6.2-15.4,56,56,0,0,1,21.4,29.2c1.3,7.2,1.1,15-2.6,21.5-3,5.7-7.6,10.3-12.3,14.6-1.5-4.6-3.2-9.5-6.8-12.9-8-7.5-19.2-10.9-30.1-10.7-7.3-.3-14.4,1.2-21.3,2.7-6.6,1.6-13.7-1.4-18-6.5,7-2,13.9-4,20.5-7.1,6-2.8,12.5-4.1,19-5.1-4.9-1.1-9.8-2.4-14.7-1.2-9.8,1.3-18.6,6.9-28.6,7.3a34.38,34.38,0,0,1-19.1-6.1,57.26,57.26,0,0,0,13.5-8c4.3-3.5,10.1-3.7,15.4-4.7a27.15,27.15,0,0,0-12.2-3c-2.6.3-4.4-1.9-6.3-3.5a45.44,45.44,0,0,1,35-7.6c6.3,1.5,11.6,5.4,17.2,8.5,0-2.8.5-5.7-.5-8.4-2-5.1-6-8.9-9.5-13.1m-29.9,19.7c5.1.5,10.2.8,15.4,1.6,6.1,1.1,11.9,3.5,17.8,5.3-2.2-3-4.8-5.9-8.2-7.4-7.8-3.9-17.1-2.8-25,.5m45.6,1.5c.1,4.1.3,8.3,2.3,11.9,2.3,4.2,6.2,7.3,9.8,10.3,6.3,5.1,9.7,12.7,15.3,18.5a23.55,23.55,0,0,0-5.3-15.9c-3.7-4.8-8.7-8.2-13.1-12.3-3.6-3.5-5.7-8.4-9-12.5m27,8.9a158.35,158.35,0,0,1,5.8,14.9c1.7,5.4,2,11.1,3.3,16.6,1.6-1.9,3.5-3.7,3.6-6.3,1.7-9.9-3.8-19.3-10.91-25.9-.39.1-1.39.6-1.79.7m-66.9,4.2c-6.2,2.2-12.8,3.4-19.1,4.9,6.8,3.6,14.8,2.3,21.6-.4,7.5-3.1,15.5-3.8,23.3-5.4-8.4-3.1-17.6-1.8-25.8.9m6,20a56.74,56.74,0,0,0,10.9.2c5.4-.8,10.4-3.1,15.8-3.7,4.4-.5,8.8-.2,13.2-.4-4.1-2.1-8.4-4-13.2-4C547.75,85.1,539.25,90.5,530.55,93.9Z"/><path class="cls-3" d="M149.45,41.1c16.3-4.3,35.8.5,46.1,14.4-9.8,1.4-19.8-.6-28.9-4.5C160.45,48.4,154.45,45.4,149.45,41.1Z"/><path class="cls-3" d="M77.85,107.3c3.8-4.9,10.1-6.5,16-7.1-4,3.7-8.2,7.6-9.8,13.1a17.88,17.88,0,0,0,8.8,20.8c8.8,4.6,18.9,5.8,28.6,5.7a99.53,99.53,0,0,0,29.2-3.6c-6-4.3-12.9-7.2-19.1-11.3-5-3.4-10.3-6.1-15.5-9.3,15.2-4.1,31.1.4,44.6,7.6,13.3,7.3,28.9,11.7,44.1,9.2,9.1-.7,16.9-6,25.8-7.7-1.6,5.1-5.8,8.3-9.7,11.4,3.4-.8,7-1.6,9.9-3.8,3.8-2.5,6.4-6.3,9.7-9.3,1.9-1.8,4.5-2.1,7-2.3,10.6-.6,21.5-.6,31.5,3.5,18.7,7,33.4,24.9,34.4,45.1-3.8-.1-7.6-.1-11.4-.2-1.6-12.1-7.1-24.3-16.9-32-7.7-6.2-17.8-8.5-27.5-8.7-12.6.8-26,4.4-34.4,14.5-5.2,6-10.9,12.5-18.9,14.4a60.32,60.32,0,0,1-2.4-12.8c-10.6,6.9-22.5,13.1-35.5,12.2,2.7-4.8,6.1-9.3,8.8-14.1-8,.4-15.2,4.5-22,8.5-15.5,9.6-27.8,24.4-45.4,30.5a42,42,0,0,1-20.5,2.2c1.2-8.3,7.1-14.8,11-22-15.8-.2-32.2-.9-46.9-7.6A43,43,0,0,1,34,138.9c-5.6-8-13.9-13.7-23.1-17,3.6-2.8,7.7-5.3,12.3-5.4,6.9.1,14.4,3,17.4,9.5,5.4,9.7,13.5,18.2,23.9,22.3,12.3,5.3,26.6,4.6,39.3.6-5.4-3.1-11.4-4.9-16.3-8.7-5.5-4.1-11-9-13.1-15.7-2.2-5.5-.1-12.1,3.5-17.2m66.7,19.3c9.8,3.9,19.2,9.9,30.1,10.3-9.4-5-19-11.6-30.1-10.3M126,149c-8.2,2.5-16.9,3.3-25.1,6.1,7,2.5,14.5,1.4,21.4-.3,10-2.5,20.1-5.2,30-8A66.6,66.6,0,0,0,126,149m-10.1,14.3c-7.4,3.3-15.3,8.5-16.9,17.1,2.7-2.2,5.3-4.8,8.1-7,7-5.8,15.6-9.2,23.9-12.5C125.75,161,120.45,161.1,115.85,163.3Z"/><path class="cls-3" d="M422.35,117.6c8.2-10.2,22-16,35-13-4.6,4.6-11.1,6.3-17,8.8C434.75,115.7,428.65,116.6,422.35,117.6Z"/><path class="cls-3" d="M612.45,113.6c7-1.2,14-1.8,21-.6,4.9.7,8.9,3.8,12.7,6.8-7.7,2.7-16,4-23,8.7-6.2,3.8-10.1,10.3-16.4,14.1s-13.5,6.7-20.9,7.3c2.8-5.1,7.3-9.4,8.7-15.2,1.3-3.9,1.2-8.7,4.5-11.4C603.05,119.4,606.65,114.4,612.45,113.6Z"/><path class="cls-3" d="M629.65,131.5a22.85,22.85,0,0,1,18.3-4.9c2.4.5,2.5,3.5,2.7,5.5.6,5.3-2.3,9.8-4.9,14.1-3.4-4-6-8.9-10.7-11.6C633.35,133.5,631.45,132.6,629.65,131.5Z"/><path class="cls-3" d="M12.55,147.5c-5.9-5-8.7-13.2-5.6-20.6a30.87,30.87,0,0,1,16.1,9A30,30,0,0,0,12.55,147.5Z"/><path class="cls-3" d="M432.05,149.4c3.2-.8,5.8,1.7,8.4,2.8-4.3,7-11.4,12.5-19.5,13.9-6.4,1-12.5-1.7-17.9-4.6,6.8-2.3,13.7-4.2,20.1-7.6C426.15,152.4,429,150.4,432.05,149.4Z"/><path class="cls-3" d="M515.85,178.4c3.8,3,7.4,6.2,10.9,9.4,10.3,8.5,23.1,15,30.1,26.9,1.9,3.7,4.2,8.4,1.6,12.3-2.8,4.9-8.9,5.9-13.8,7.7,2.2,5.6,5.7,10.9,10.9,14.1,3.9,2.7,8.7,3.6,12.8,6,3.1,3.5,5.3,7.7,8.1,11.4a56.87,56.87,0,0,0-13.8,6.1c5.8,2,12.1,4.2,15.6,9.6,6.5,8.4,5.3,19.7,8.4,29.4a35.93,35.93,0,0,1-25.5-16.6c-1.9-3.4-3.7-7-5.6-10.3a173.29,173.29,0,0,0-3.8,50.2c.5,7.2,3.6,13.8,6,20.6-3.7,3.6-9.6,3.8-13.9,1.3-6.5-3.7-12.6-8.8-16-15.5-2.5-4.8-.7-10-.6-15,.2-9.8.4-19.7.4-29.6a67.14,67.14,0,0,0-6.9-29.8c-1.8-4-5.3-7.6-5-12.2.1-25.2-.2-50.7.1-76m9.4,16.9c1.1,3.1,1.9,6.4,4.5,8.7,4.5,4.1,10,6.8,14.9,10.5,4.6,3.5,7.9,8.3,11.6,12.8-.5-9.2-7.2-16.6-14.7-21.2-5.5-3.8-10.7-7.7-16.3-10.8m3.1,25c.3,4.9,1.2,9.7,3.6,13.9,2.8,5.1,7.3,9,10.6,13.7a72.23,72.23,0,0,1,9,18c.2-6.1.4-12.5-2.5-18-3.1-8-10.6-13-15.1-19.9-1.8-2.5-3.6-5.2-5.6-7.7m-5.5,4.5c.2,3.8-.2,7.8,1.2,11.4,2.7,7.4,8,13.5,12.9,19.5,4.6,5.6,7.2,12.5,11.5,18.3a51,51,0,0,0-5.4-20.2c-2.8-5.4-7.4-9.5-11.1-14.2a65.37,65.37,0,0,1-9.1-14.8m3.1,24.3c-1,14.2,7.9,26.9,7.7,41.2.7,12-1.8,24-2.2,36a21,21,0,0,0,8.7,17.8c-1.7-5.5-3.8-11-3.7-16.8-.3-8.5,2.1-16.8,2.3-25.3.2-5.7.3-11.3.1-17-.1-5.4-2.1-10.6-4.1-15.4-3-6.8-6-13.5-8.8-20.5m37.4,27.5c-.3,4-1.2,8.3.9,12,3.6,6.7,9.3,11.8,15.2,16.5-1.2-5-3-9.8-6.3-13.6A85.13,85.13,0,0,1,563.35,276.6Z"/><path class="cls-3" d="M559.85,209c5.5,1.6,11.2,2.8,16,5.9,4.1,3.3,6.4,8.3,8,13.2,1.1,5.8,1.5,12.7-3,17.2-4.1,4.1-10.7,3.7-15.8,2.5-5.4-1.3-9.4-5.2-12.8-9.3,4.6-3.2,10.7-5.6,12.8-11.2,1.8-6.6-2.1-12.9-5.2-18.3m10.3,10.1c1.2,5,3.6,10,2,15.2-1.6,3.5-4.3,6.2-6.5,9.3,3-.4,6.2-.7,8.7-2.8,4.1-3.6,5-9.8,3.2-14.8C576.15,222.6,573.05,220.7,570.15,219.1Z"/><path class="cls-3" d="M54,228.2c4-6.5,10.8-10.7,17.5-14-5,3.8-9.9,8.3-11.7,14.6-3.5,9.5,1.5,20.6,10,25.5,5.3,3.5,11.8,2.6,17.8,2.7-4.4,3.9-9.6,8-15.8,7.8-9.7.5-18.7-7-21.3-16-1.2-7-.8-14.8,3.5-20.6m1.8,15.3c-1,5.9.4,13.4,6.6,15.9,4.4,2.7,9.5,1.3,13.8-.8-4.7-1.6-10.6-2-13.8-6.3A106.2,106.2,0,0,0,55.75,243.5Z"/><path class="cls-3" d="M35.15,276.9c1-4.2,3.2-8,5.1-11.8,1.2,4.4,1.8,9.3,4.7,13,3.2,3.4,7.6,5.2,12,6.2,6.2.8,11.6-3,16.3-6.5A21.7,21.7,0,0,1,69,297.1c-3.6,4.4-9.6,5.9-15.2,5.5-6.1-.1-12.9-2.3-15.8-8-2.9-5.4-4.4-11.7-2.8-17.7m9.5,9.2c1,3.2,1.4,7.3,4.9,8.5,5.8,3.5,13.3,1.4,17.2-3.9-3.8,0-7.6.5-11.4-.2C51.65,289.6,48.25,287.6,44.65,286.1Z"/><path class="cls-3" d="M207.15,289.3c4-7.5,7-15.5,11.8-22.5,9.3,17.2,17.4,35,26.4,52.5,3.3,6.4,5.9,13.2,10,19.1,4.5-6.8,7.5-14.2,11.2-21.3,8.5-16.7,16.4-33.8,25.4-50.2a104.5,104.5,0,0,1,8.2,15.5c9.5,18.8,18.6,37.9,28.2,56.7,4.4-7.2,7.8-14.9,11.7-22.4,6.5-13.4,13.5-26.7,19.9-40.1a71.21,71.21,0,0,1,5.5-9.7c12.8,23.7,23.5,48.6,36.4,72.2,12.5-24,23.6-48.6,36.6-72.2,13.2,23.1,22.6,48.3,36.4,71,4.2-5.8,6.7-12.6,9.9-18.9,5.1-10,9.7-20.4,14.9-30.3,3.2-6.2,5.7-12.8,9.5-18.7-.1,12-2.2,23.9-4.1,35.8-4.5,27.7-12.2,54.7-21.6,81.1A552.48,552.48,0,0,1,453,452.1a413.07,413.07,0,0,1-47.9,67.1c-21.5,24.9-46.2,47-72.8,66.5-1.9,1.2-4.2,2.7-6.3,1.2-7.9-5.3-15-11.7-22.6-17.5-13.6-10.4-26-22.7-38-34.9-13-13.8-25.8-28-36.5-43.7a435.24,435.24,0,0,1-61.5-120.9c-7.1-21.3-12.1-43.2-16.1-65.2-1.5-11.8-4-23.6-3.4-35.7,7.2,15.6,15.1,30.9,22.1,46.7,4.2,7.5,7.1,15.7,12.2,22.6C191.25,322.5,198.75,305.7,207.15,289.3Z"/><path class="cls-3" d="M590.75,271.3a100.52,100.52,0,0,0,15.6-1.4c.09,3.2-.3,7.7-4,8.4C597.15,279.3,593.65,274.5,590.75,271.3Z"/><path class="cls-3" d="M79.15,319.8c3.5-2.4,5.6-6.1,8-9.5,6.1,9.6,3.4,24-6.4,30.1-6.1,3.5-14.4,3.6-20.2-.5-4.7-3.3-9-7.8-10-13.6-.8-4.1.5-8.2,1.6-12.1,2.8,3,5.7,6.2,9.7,7.5,5.5,1.4,12,1.3,17.3-1.9m-1.7,13c-4.1.8-8.3.4-12.6.6a40,40,0,0,0,3.2,4c7.3,3.6,18.9.2,19.4-9C84.05,329.9,81.05,332,77.45,332.8Z"/><path class="cls-3" d="M118.05,359.5c7.4-1.1,12-7.2,17.4-11.7-.5,3.5-1,7.4-3.5,10.1-3.5,3.8-7.9,6.4-11.8,9.8a36.16,36.16,0,0,0,14.9-2.7c-2.2,6.8-5.7,14.5-13,16.8-4.1,1.8-8.4.2-12.5-.8,5.7-1.9,12.6-2.4,16.3-7.8-7.1.8-14.8,3.5-21.4-.4-6.5-3-5.6-11.2-5.8-17C104.65,358.7,111.35,361.6,118.05,359.5Z"/><path class="cls-3" d="M156.05,351.5c14.2,50.8,37,99.3,68.2,142.1,2.3,3.6,5.5,6.5,7.4,10.4.5,4.4-1.4,8.9-.3,13.3,1.2,10.5,8.4,18.6,14.7,26.5-6.5,3.1-14.1,5.1-21.2,2.8a28.94,28.94,0,0,1-14.1-9.9c-4.5-6.9-5.2-15.3-7.9-22.9-3.7-9.5-9.7-17.9-16.3-25.7-3.2-3.8-6.4-7.6-10.4-10.6-3.8,2.3-5.2,7.3-9.1,9.5a14.73,14.73,0,0,1-17.1-.7c4.9-4.2,9.7-9.1,11.3-15.6a29.59,29.59,0,0,0-1.2-18.8c-1.6-4.1-5.3-6.9-8.5-9.6-2.2,4.8-4,10-8.3,13.3-2.3,1.7-5.9,2.8-8.4,1.1a12.7,12.7,0,0,1-5.3-12.2c1.2-14.4,9-26.9,13.8-40.2,3.9-11.1,8-22.3,10-33.9,1-6.2,1.9-12.6,2.7-18.9m1.5,23.1c-2.5,9-3.2,18.5-7.3,27-4.4,10.3-10.7,21.2-8,32.9,4-7.2,6.5-15,10.1-22.3,5.3-11.5,10-25.2,5.2-37.6m5.5,25.2c-2.3,6.3-4.4,12.8-7.2,19-1.9,4.5-4.2,9.1-4.7,14.1-.3,3,1.1,5.7,2.1,8.4,2.7-6.4,4.4-13.3,7.7-19.6,3.3-6.6,6.5-14.8,2.1-21.9m9.7,43.5c-.4,6.5-.4,13.3,2.1,19.5,2.3,6.9,7.1,12.5,12,17.5a104,104,0,0,1,17.2,25c2.6,5,3.6,10.8,7.4,15,0-11.9-6.1-22.6-11.9-32.6-4.7-8.3-12.2-14.6-17.6-22.5-4.4-6.7-6.8-14.5-9.2-21.9m41.7,59.1c.1,6.8,0,13.8,3.1,20.2,3.2,8,10,14,17.5,17.9-2.4-3.8-4.9-7.6-7.4-11.3C222.05,521,218.35,511.5,214.45,502.4Z"/><path class="cls-3" d="M504.85,354.6c6,11.9,11.2,24.3,17.9,35.8,3.1,5.8,7.5,11.1,8.9,17.6,1.4,5.8,1,11.7,1.1,17.6-1.5-8.8-5.9-16.7-10.3-24.2-3.9-6.7-8.8-12.8-11.5-20.1C507.65,372.6,504.75,363.7,504.85,354.6Z"/><path class="cls-3" d="M498.35,394.1c.5-1.3,1.3-2.5,1.8-3.8.6,1.7,1.2,3.5,1.8,5.2-.3.7-1,2-1.3,2.7a15.05,15.05,0,0,0-1-1.7A8,8,0,0,0,498.35,394.1Z"/><path class="cls-3" d="M535.85,438.9c1.8-3.9,2.8-8.1,4.4-12a40.79,40.79,0,0,1,3,23.9c-1.2,6.4-5.8,12.7-12.5,13.8-6.3,1.8-13.3-.6-17.8-5.2a32,32,0,0,1-8.4-16.8c5,1.8,9.6,4.4,14.8,5.5,6.8,1,13.6-3.3,16.5-9.2m-5.5,10.3c-4.2,2-9,.9-13.5,1.1,1.9,2,3.8,4.4,6.7,5,4.2.7,9.3-.5,12-3.9,1.4-2.6,1.6-5.8,2.2-8.7-2.1,2.3-4.2,5.2-7.4,6.5m-11.5,9.5c3.9,2.5,8.8,5.6,13.5,3.1,3.6-.9,4.8-4.6,6.1-7.6A34.25,34.25,0,0,1,518.85,458.7Z"/><path class="cls-3" d="M469.55,495.9a14.46,14.46,0,0,1,5.8-9.2c1.1,9.2-1.1,18.3-1.2,27.4a282.82,282.82,0,0,1-5.1,33c-1.4,8.9-3.9,18.7.5,27.1,3.8,6.8,12.5,9,19.5,6.8a26,26,0,0,1,.2,14.1c-2.2,8.8-9.5,15.7-18.2,18.2a18.52,18.52,0,0,1-15.5-2.8c-6.4-4.4-10.1-11.5-14-18.2-1.6,10-5,20.1-11.5,28-4.3,5.1-7.2,11.1-10.3,16.9a32.42,32.42,0,0,1-5.4-22.9,71.46,71.46,0,0,1,4.8-17.4c2-5.3,1.4-11.1,1.2-16.6-3.6,7.1-7.6,14.7-14.8,18.6-11.1,6-24.1,5.3-36,8.4a53.67,53.67,0,0,0-19.3,8.8c1.5-4,3.3-8.1,6.9-10.7,11.3-9.2,27-8.1,38.9-16,2.9-1.8,4.4-4.9,6-7.7-4.2,1.3-8.3,3.2-12.7,4.1-4.4,1.1-9.1.1-13.5-.6a22.91,22.91,0,0,1,10.6-12.9c10.6-5.8,22.9-6,34.4-8.9,13.5-3.3,28.2-7.6,36.8-19.2,5-5.9,7.5-13.4,8.2-20.9a182.17,182.17,0,0,1,3.7-27.4m-23.3,64.4c-7.7,4.1-16.5,5.7-25,6.5-9.2,1.3-19.1,2-26.6,8.1,6-.4,12-1.5,18-1.4,12.8-.6,26.6-1.7,37.4-9.5,4.5-3.2,7-8.2,9-13.2-4.3,3.4-8.2,7-12.8,9.5m17.4,31.8c3.9,4.3,10.4,3.7,15.3,1.4-4.2-2.2-9.4-3.5-12.2-7.6s-3.9-9.3-5.6-13.9c-2.5,6.4-3.1,14.9,2.5,20.1m-39.3,7.5c-2.3,3.9-4.6,7.9-4.9,12.6-.4,3.7.6,7.4,1.7,11,1.2-5.1,1.9-10.3,4.2-15.1,2.5-5.4,6.5-10,8.3-15.8,1.2-3.5.8-7.2.9-10.8-3.3,6-6.6,12.2-10.2,18.1m-25-5.7c-6,3-12.9,3.7-18.8,6.9,8.9,2.7,18.6.3,26.2-4.8,4.2-2.7,6.6-7.4,8.3-11.9-5.1,3.1-10,7-15.7,9.8m53.1-10.2c-1.4,5.3-2.6,11.2-.1,16.3,3.3,5.5,10.7,8.9,16.8,6.4,3.2-1.1,5.3-3.8,7.4-6.2-5.6-.4-12,1.3-16.8-2.5C455.25,594.7,454.05,588.9,452.45,583.7Z"/><path class="cls-3" d="M511.65,498a46.57,46.57,0,0,0,3.9-4.9c1,5.2,2.8,11.3-.1,16.2-4,3.9-9.3,6.1-14.1,8.7,4.6-.1,9.3-.3,14,0-3.5,5.8-11,9.1-17.4,6.2-5.3-1.7-8.8-6.1-11.6-10.6a93.76,93.76,0,0,0,10.6.2c3.3-.6,6-2.6,8.9-4.3-7.3,0-15.2-.1-21.4-4.4-2.5-1.7-2.5-5.1-3.2-7.6,5.5,2.4,10.9,6,17.1,5.8C503.05,503,508.25,501.8,511.65,498Z"/><path class="cls-3" d="M223.75,581.5c16.4,5.4,31.9,12.8,48.6,17.3,11.8,3,23.2,8.7,32,17.3,5.3,5.3,9.8,11.8,11.1,19.4,1.4,5.3-.3,10.7-1.7,15.7-4.4-4.4-8.7-9.3-14.1-12.6-9.9-6.1-21.2-9.5-31.5-15-11-5.9-22.3-11.6-31.7-19.9-2.9-2.2-3.6-6-4.9-9.2C229.75,589.9,226.65,585.7,223.75,581.5Z"/><path class="cls-3" d="M378.05,611.3c6.5-1,13.1-2.4,19.8-2.7-3.4,4.7-7.9,8.7-11.9,12.8-2.9,3.3-7.5,2.6-11.3,3.8-9.9,2.1-16.9,10-23.9,16.8-2.9-6.9-2.5-15.6,2.9-21.1C360.35,614.9,369.45,612.9,378.05,611.3Z"/><path class="cls-3" d="M236.55,611.1c7.9,5.5,15.9,11.1,24.6,15.4,7.2,3.5,14,7.5,21.4,10.3a72.44,72.44,0,0,1,14,6.8c-8.4.4-16.8-.4-25.2-.4a63.94,63.94,0,0,1,14.2,21c-11.9-4.8-25.2-6.8-35.9-14.5-5.3-4.2-10.6-9.6-11.7-16.6-.6-7.4-1-14.8-1.4-22m9,13.4c2.3,6.1,7.7,11,14.4,11.5,6.5.3,13.1,1.6,19.6,2.1-4.9-4.6-11.5-5.5-17.8-6s-11.2-4.3-16.2-7.6m.2,8.8a21.58,21.58,0,0,0,2.7,6.9c5.4,7.1,13.7,12.2,22.8,12-4.4-2.1-9-4-13-7C253.65,641.9,250.15,637.1,245.75,633.3Z"/></g></g></svg>