<svg id="About_Us_Icon" data-name="About Us Icon" xmlns="http://www.w3.org/2000/svg" width="36.098" height="36.049" viewBox="0 0 36.098 36.049">
  <defs>
    <style>
      .cls-1 {
        fill: #ac3236;
      }
    </style>
  </defs>
  <path id="Path_2851" data-name="Path 2851" class="cls-1" d="M-1926.35,1887.88c-9.759.208-18.163-8.176-18.061-18.174a18.288,18.288,0,0,1,18.405-17.869,18.249,18.249,0,0,1,17.691,18.306C-1908.428,1879.72-1916.521,1888.08-1926.35,1887.88Zm14.5-18.076a14.5,14.5,0,0,0-14.271-14.432,14.48,14.48,0,0,0-14.754,14.5,14.6,14.6,0,0,0,14.467,14.541A14.58,14.58,0,0,0-1911.85,1869.8Z" transform="translate(1944.412 -1851.835)"/>
  <path id="Path_2852" data-name="Path 2852" class="cls-1" d="M-1892.484,1905.3c0,1.743-.015,3.485.009,5.227.007.54-.147.772-.725.756-1.191-.034-2.385-.028-3.577,0-.527.011-.683-.2-.681-.7q.021-5.273,0-10.547c0-.5.146-.719.678-.708,1.192.026,2.385.031,3.577,0,.575-.016.736.209.728.753C-1892.5,1901.813-1892.484,1903.556-1892.484,1905.3Z" transform="translate(1913.107 -1883.493)"/>
  <path id="Path_2853" data-name="Path 2853" class="cls-1" d="M-1895.639,1880.634a2.62,2.62,0,0,1-2.8-2.736,2.809,2.809,0,0,1,2.839-2.771,2.928,2.928,0,0,1,2.82,2.72A2.7,2.7,0,0,1-1895.639,1880.634Z" transform="translate(1913.76 -1867.364)"/>
</svg>
