<?xml version="1.0" encoding="utf-8"?>
<!-- Generator: Adobe Illustrator 24.1.0, SVG Export Plug-In . SVG Version: 6.00 Build 0)  -->
<svg version="1.1" id="About_Us_Icon" xmlns="http://www.w3.org/2000/svg" xmlns:xlink="http://www.w3.org/1999/xlink" x="0px"
	 y="0px" viewBox="0 0 36.1 36" style="enable-background:new 0 0 36.1 36;" xml:space="preserve">
<style type="text/css">
	.st0{fill:#FFFFFF;}
</style>
<path id="Path_2851" class="st0" d="M18.1,36C8.3,36.3-0.1,27.9,0,17.9C0.2,7.9,8.4-0.1,18.4,0c9.9,0.3,17.7,8.4,17.7,18.3
	C36,27.9,27.9,36.2,18.1,36z M32.6,18c0-7.9-6.4-14.3-14.3-14.4c-8-0.2-14.6,6.2-14.8,14.2c0,0.1,0,0.2,0,0.3
	c0,8,6.5,14.5,14.5,14.5C26.1,32.6,32.6,26,32.6,18C32.6,18,32.6,18,32.6,18L32.6,18z"/>
<path id="Path_2852" class="st0" d="M20.6,21.8c0,1.7,0,3.5,0,5.2c0,0.5-0.1,0.8-0.7,0.8c-1.2,0-2.4,0-3.6,0c-0.5,0-0.7-0.2-0.7-0.7
	c0-3.5,0-7,0-10.5c0-0.5,0.1-0.7,0.7-0.7c1.2,0,2.4,0,3.6,0c0.6,0,0.7,0.2,0.7,0.8C20.6,18.3,20.6,20.1,20.6,21.8z"/>
<path id="Path_2853" class="st0" d="M18.1,13.3c-1.4,0.1-2.7-1-2.8-2.4c0-0.1,0-0.2,0-0.3c0-1.5,1.3-2.8,2.8-2.8
	c1.5,0.1,2.7,1.2,2.8,2.7c0.1,1.5-1.1,2.7-2.6,2.8C18.3,13.3,18.2,13.3,18.1,13.3z"/>
</svg>
