<?xml version="1.0" encoding="utf-8"?>
<!-- Generator: Adobe Illustrator 24.0.3, SVG Export Plug-In . SVG Version: 6.00 Build 0)  -->
<svg version="1.1" id="Layer_1" xmlns="http://www.w3.org/2000/svg" xmlns:xlink="http://www.w3.org/1999/xlink" x="0px" y="0px"
	 viewBox="0 0 39.5 38.5" style="enable-background:new 0 0 39.5 38.5;" xml:space="preserve">
<style type="text/css">
	.st0{fill:#FFFFFF;}
	.st1{fill:#D4AF37;}
</style>
<rect x="1.9" y="18.9" class="st0" width="35.6" height="19.6"/>
<rect y="15.3" class="st0" width="39.5" height="2.5"/>
<path class="st0" d="M19.8,14.2c-6.3,0-12.7,0-19,0c-0.2,0-0.4,0.1-0.5-0.1s0.1-0.3,0.2-0.5c0.8-1.2,1.6-2.3,2.4-3.5
	c0.2-0.4,0.6-0.6,1-0.5c3.1,0,6.3,0,9.4,0c0.5,0,0.6-0.1,0.7-0.6c0.4-2.9,0.9-5.8,1.4-8.6c0-0.3,0.1-0.5,0.5-0.4
	c3.7,0.6,7.4,1.3,11.2,1.9c0.4,0.1,0.5,0.2,0.4,0.6c-0.4,2.2-0.7,4.4-1.1,6.5c-0.1,0.6-0.1,0.6,0.5,0.6c3,0,5.9,0,8.9,0
	c0.3,0,0.6,0.1,0.8,0.4c0.8,1.2,1.6,2.4,2.5,3.6c0.1,0.1,0.3,0.3,0.2,0.5s-0.3,0.1-0.5,0.1C32.4,14.2,26.1,14.2,19.8,14.2z"/>
<path class="st1" d="M18.2,21.1h3.1v3.2L20.6,31h-1.5l-0.9-6.7V21.1z"/>
<rect x="18.3" y="32.7" class="st1" width="3" height="2.6"/>
<path class="st1" d="M13.2,12.2H8l0.3-0.6h5.2L13.2,12.2z"/>
<path class="st1" d="M31.2,12.2H26l0.3-0.6h5.2L31.2,12.2z"/>
</svg>
