<svg xmlns="http://www.w3.org/2000/svg" width="34.909" height="34.473" viewBox="0 0 34.909 34.473"><defs><style>.a{fill:#fff;}</style></defs><g transform="translate(0)"><g transform="translate(5.441 15.161)"><rect class="a" width="3.417" height="3.417" transform="translate(4.911)"/><rect class="a" width="3.417" height="3.417" transform="translate(10.25)"/><rect class="a" width="3.417" height="3.417" transform="translate(15.161)"/><rect class="a" width="3.417" height="3.417"/><rect class="a" width="3.417" height="3.417" transform="translate(4.911 4.698)"/><rect class="a" width="3.417" height="3.417" transform="translate(10.25 4.698)"/><rect class="a" width="3.417" height="3.417" transform="translate(15.161 4.698)"/><rect class="a" width="3.417" height="3.417" transform="translate(0 4.698)"/><rect class="a" width="3.417" height="3.417" transform="translate(9.823 9.396)"/><rect class="a" width="3.417" height="3.417" transform="translate(15.161 9.396)"/><rect class="a" width="3.417" height="3.417" transform="translate(20.073 9.396)"/><rect class="a" width="3.417" height="3.417" transform="translate(20.073 4.698)"/><rect class="a" width="3.417" height="3.417" transform="translate(4.911 9.396)"/></g><rect class="a" width="2.135" height="7.474" transform="translate(7.256)"/><rect class="a" width="2.135" height="7.474" transform="translate(25.193)"/><path class="a" d="M-1935.48,1528.043v-1.713h-6.266" transform="translate(1941.745 -1523.553)"/><path class="a" d="M-1913.174,1526.329h-.217v1.713h-.041a2.872,2.872,0,0,1,.831,2.024,2.883,2.883,0,0,1-2.882,2.883,2.883,2.883,0,0,1-2.883-2.883,2.873,2.873,0,0,1,.831-2.024h-.006v-1.713h-13.786v1.713h-.041a2.874,2.874,0,0,1,.831,2.024,2.883,2.883,0,0,1-2.883,2.883,2.883,2.883,0,0,1-2.883-2.883,2.873,2.873,0,0,1,.831-2.024h-.006v-1.713h-6.265v31.7h34.909v-31.7Zm3.135,28.4h-28.614v-20.286h28.614Z" transform="translate(1941.745 -1523.553)"/><path class="a" d="M-1896.683,1526.329h-13.889v1.713h-.041" transform="translate(1920.989 -1523.553)"/></g></svg>