<svg xmlns="http://www.w3.org/2000/svg" width="28.528" height="31.831" viewBox="0 0 28.528 31.831"><defs><style>.a{fill:#fff;}</style></defs><path class="a" d="M-1642.215,1574.212l4.883,14.565,4.88-14.575c2.716,1.177,5.386,2.284,8.006,3.5a2.386,2.386,0,0,1,1.346,2.2c.032,2.368.044,4.737.006,7.1-.02,1.216-.771,1.809-2.156,1.81q-9.506.007-19.012,0c-1.7,0-3.4.013-5.1,0-1.612-.012-2.226-.642-2.229-2.26,0-2.068.01-4.136,0-6.2a2.932,2.932,0,0,1,1.941-2.96C-1647.2,1576.359-1644.76,1575.3-1642.215,1574.212Z" transform="translate(1651.598 -1556.998)"/><path class="a" d="M-1616.447,1530.635a10.513,10.513,0,0,1-3.752,8.049,5.92,5.92,0,0,1-8.015-.185,10.745,10.745,0,0,1-3.047-10.944,7.487,7.487,0,0,1,8.325-4.9,7.367,7.367,0,0,1,6.415,6.655C-1616.483,1529.705-1616.476,1530.106-1616.447,1530.635Z" transform="translate(1638.35 -1522.581)"/></svg>