<?xml version="1.0" encoding="utf-8"?>
<!-- Generator: Adobe Illustrator 24.1.0, SVG Export Plug-In . SVG Version: 6.00 Build 0)  -->
<svg version="1.1" id="Layer_1" xmlns="http://www.w3.org/2000/svg" xmlns:xlink="http://www.w3.org/1999/xlink" x="0px" y="0px"
	 viewBox="0 0 39.5 30.3" style="enable-background:new 0 0 39.5 30.3;" xml:space="preserve">
<style type="text/css">
	.st0{fill:#FFFFFF;}
	.st1{fill:none;}
</style>
<path class="st0" d="M36.3,0v3.5h3.2c-0.3,2.2-0.6,4.2-0.8,6.2c-0.7,4.8-1.3,9.5-2,14.3c-0.3,1.9-0.5,3.8-0.8,5.7
	c0,0.2-0.4,0.4-0.6,0.6c-0.1,0.1-0.2,0-0.4,0H0V0H36.3z M4.5,8.1h26.2V4.4H4.5V8.1z M15.5,26.2v-8.9H4.5v8.9H15.5z M4.6,14h22.8
	v-3.9H4.6V14z M18.9,17.4v2.1h11.7v-2.1H18.9z M30.6,24.5H18.9v1.9h11.7V24.5z M30.6,21.2H18.9v1.7h11.7V21.2z"/>
<path class="st1" d="M4.5,8.1V4.4h26.2v3.7H4.5z"/>
<path class="st1" d="M15.5,26.2H4.5v-8.9h10.9V26.2z"/>
<path class="st1" d="M4.6,14v-3.9h22.8V14H4.6z"/>
<path class="st1" d="M18.9,17.4h11.7v2.1H18.9V17.4z"/>
<path class="st1" d="M30.6,24.5v1.9H18.9v-1.9H30.6z"/>
<path class="st1" d="M30.6,21.2v1.7H18.9v-1.7H30.6z"/>
</svg>
