<svg id="Newsletter_Icon" data-name="Newsletter Icon" xmlns="http://www.w3.org/2000/svg" width="34.094" height="33.239" viewBox="0 0 34.094 33.239">
  <defs>
    <style>
      .cls-1, .cls-2 {
        fill: #ac3236;
      }

      .cls-2 {
        opacity: 0.4;
      }
    </style>
  </defs>
  <path id="Path_173" data-name="Path 173" class="cls-1" d="M45.548,242.7h-25A4.364,4.364,0,0,1,16,238.542V224l17.047,7.271L50.094,224v14.542A4.364,4.364,0,0,1,45.548,242.7Z" transform="translate(-16 -209.458)"/>
  <path id="Path_174" data-name="Path 174" class="cls-2" d="M102.729,0H82.273A2.181,2.181,0,0,0,80,2.077V13.5L92.5,18.7,105,13.5V2.077A2.181,2.181,0,0,0,102.729,0ZM98.183,10.387H86.819a1.091,1.091,0,0,1-1.136-1.039A1.091,1.091,0,0,1,86.819,8.31H98.183A1.091,1.091,0,0,1,99.32,9.348,1.091,1.091,0,0,1,98.183,10.387Zm0-4.155H86.819a1.091,1.091,0,0,1-1.136-1.039,1.091,1.091,0,0,1,1.136-1.039H98.183A1.091,1.091,0,0,1,99.32,5.194,1.091,1.091,0,0,1,98.183,6.232Z" transform="translate(-75.454)"/>
</svg>
