<svg xmlns="http://www.w3.org/2000/svg" width="35.362" height="35.994" viewBox="0 0 35.362 35.994"><defs><style>.a{fill:#fff;}</style></defs><rect class="a" width="17.558" height="3.073" transform="translate(17.804 12.291)"/><rect class="a" width="8.779" height="2.634" transform="translate(26.583 8.34)"/><rect class="a" width="17.558" height="3.073" transform="translate(17.804 16.241)"/><rect class="a" width="17.558" height="3.073" transform="translate(17.804 20.192)"/><rect class="a" width="17.558" height="3.073" transform="translate(17.804 24.142)"/><rect class="a" width="17.558" height="3.073" transform="translate(17.804 28.093)"/><rect class="a" width="17.558" height="3.073" transform="translate(17.804 32.044)"/><rect class="a" width="1.756" height="6.584" transform="translate(30.095 1.756)"/><path class="a" d="M-1659.347,1168.779v-5.267h2.195l2.195-3.512h.878l1.756,3.512h2.195v2.195l16.68-5.706s1.756,1.494-1.317,2.5l-15.363,6.276v1.756h-1.756v25.459h-6.584v-24.581l-7.023,2.195s-1.756.439-.878-1.756Z" transform="translate(1666.616 -1160)"/></svg>