<svg xmlns="http://www.w3.org/2000/svg" width="35.093" height="34.073" viewBox="0 0 35.093 34.073"><defs><style>.a{fill:#fff;}</style></defs><path class="a" d="M-2161.953,1536.321l5.635,5.643-11.717,11.738-5.632-5.646Z" transform="translate(2187.557 -1530.47)"/><path class="a" d="M-2205.417,1521.06v2.2h-7.634v9.353h9.834v-4.044h2.289V1529q0,2.3,0,4.592a1.163,1.163,0,0,1-1.313,1.314q-5.911,0-11.823,0a1.14,1.14,0,0,1-1.278-1.255q-.007-5.706,0-11.413a1.1,1.1,0,0,1,1.124-1.22c2.88-.016,5.759,0,8.639,0A.724.724,0,0,1-2205.417,1521.06Z" transform="translate(2215.346 -1520.258)"/><path class="a" d="M-2205.418,1579.376v2.231h-7.635v9.332h9.837v-4.02h2.287v1.318c0,1.243,0,2.486,0,3.729a1.13,1.13,0,0,1-1.263,1.264q-5.935.006-11.87,0a1.129,1.129,0,0,1-1.281-1.288q0-5.64,0-11.279a1.148,1.148,0,0,1,1.308-1.311q4.07,0,8.14,0C-2205.748,1579.355-2205.6,1579.368-2205.418,1579.376Z" transform="translate(2215.346 -1559.161)"/><path class="a" d="M-2203.675,1523.832l2.825,2.669,6.322-7.736,1.745,1.421c-.1.136-.192.256-.285.371q-3.375,4.135-6.751,8.269a1.159,1.159,0,0,1-1.931.108q-1.623-1.653-3.239-3.314c-.073-.075-.137-.157-.169-.193Z" transform="translate(2208.553 -1518.764)"/><path class="a" d="M-2126.467,1530.595l-2.579,2.583-5.628-5.658,2.6-2.574Z" transform="translate(2161.56 -1522.885)"/><path class="a" d="M-2184.665,1583.281l2.356-7.9,5.619,5.656-7.859,2.345Z" transform="translate(2194.89 -1556.51)"/></svg>